<svg width="350" height="259" viewBox="0 0 350 259" fill="none" xmlns="http://www.w3.org/2000/svg">
<path d="M0 25.4079C0 11.6008 11.1929 0.407959 25 0.407959H345C347.761 0.407959 350 2.64654 350 5.40796V233.772C350 247.579 338.807 258.772 325 258.772H4.99999C2.23857 258.772 0 256.533 0 253.772V25.4079Z" fill="#333333"/>
<mask id="path-2-inside-1_24_97" fill="white">
<path d="M0 219H350V233.455C350 247.262 338.807 258.455 325 258.455H4.99999C2.23857 258.455 0 256.216 0 253.455V219Z"/>
</mask>
<path d="M0 219H350V233.455C350 247.262 338.807 258.455 325 258.455H4.99999C2.23857 258.455 0 256.216 0 253.455V219Z" fill="#767676"/>
<path d="M0 218H350V220H0V218ZM350 258.455H0H350ZM0 258.455V219V258.455ZM350 219V258.455V219Z" fill="#B5B5B5" mask="url(#path-2-inside-1_24_97)"/>
<path d="M44.6455 111.176C44.6455 110.278 44.4072 109.637 43.9307 109.254C43.4619 108.871 42.8018 108.68 41.9502 108.68H38.5869V113.766H41.9502C42.8018 113.766 43.4619 113.559 43.9307 113.145C44.4072 112.731 44.6455 112.075 44.6455 111.176ZM48.2197 111.153C48.2197 113.192 47.7041 114.633 46.6729 115.477C45.6416 116.321 44.1689 116.742 42.2549 116.742H38.5869V122.953H35.001V105.68H42.5244C44.2588 105.68 45.6416 106.125 46.6729 107.016C47.7041 107.907 48.2197 109.285 48.2197 111.153ZM54.0908 108.657H50.7041V105.575H54.0908V108.657ZM50.7041 110.18H54.0908V122.953H50.7041V110.18ZM62.376 112.594C61.6025 112.594 61.001 112.836 60.5713 113.321C60.1494 113.805 59.8838 114.461 59.7744 115.289H64.9658C64.9111 114.407 64.6416 113.739 64.1572 113.285C63.6807 112.825 63.0869 112.594 62.376 112.594ZM62.376 109.84C63.4385 109.84 64.3955 110.039 65.2471 110.438C66.0986 110.836 66.8018 111.465 67.3564 112.325C67.8564 113.082 68.1807 113.961 68.3291 114.961C68.415 115.547 68.4502 116.391 68.4346 117.492H59.6924C59.7393 118.774 60.1416 119.672 60.8994 120.188C61.3604 120.508 61.915 120.668 62.5635 120.668C63.251 120.668 63.8096 120.473 64.2393 120.082C64.4736 119.871 64.6807 119.578 64.8604 119.203H68.2705C68.1846 119.961 67.79 120.731 67.0869 121.512C65.9932 122.754 64.4619 123.375 62.4932 123.375C60.8682 123.375 59.4346 122.852 58.1924 121.805C56.9502 120.758 56.3291 119.055 56.3291 116.696C56.3291 114.485 56.8877 112.789 58.0049 111.61C59.1299 110.43 60.5869 109.84 62.376 109.84ZM69.3838 112.676V110.297H71.165V106.735H74.4697V110.297H76.5439V112.676H74.4697V119.426C74.4697 119.95 74.5361 120.278 74.6689 120.41C74.8018 120.535 75.208 120.598 75.8877 120.598C75.9893 120.598 76.0947 120.598 76.2041 120.598C76.3213 120.59 76.4346 120.582 76.5439 120.575V123.071L74.9619 123.129C73.3838 123.184 72.3057 122.91 71.7275 122.309C71.3525 121.926 71.165 121.336 71.165 120.539V112.676H69.3838ZM83.7275 112.594C82.9541 112.594 82.3525 112.836 81.9229 113.321C81.501 113.805 81.2354 114.461 81.126 115.289H86.3174C86.2627 114.407 85.9932 113.739 85.5088 113.285C85.0322 112.825 84.4385 112.594 83.7275 112.594ZM83.7275 109.84C84.79 109.84 85.7471 110.039 86.5986 110.438C87.4502 110.836 88.1533 111.465 88.708 112.325C89.208 113.082 89.5322 113.961 89.6807 114.961C89.7666 115.547 89.8018 116.391 89.7861 117.492H81.0439C81.0908 118.774 81.4932 119.672 82.251 120.188C82.7119 120.508 83.2666 120.668 83.915 120.668C84.6025 120.668 85.1611 120.473 85.5908 120.082C85.8252 119.871 86.0322 119.578 86.2119 119.203H89.6221C89.5361 119.961 89.1416 120.731 88.4385 121.512C87.3447 122.754 85.8135 123.375 83.8447 123.375C82.2197 123.375 80.7861 122.852 79.5439 121.805C78.3018 120.758 77.6807 119.055 77.6807 116.696C77.6807 114.485 78.2393 112.789 79.3564 111.61C80.4814 110.43 81.9385 109.84 83.7275 109.84ZM98.9854 109.875C99.0479 109.875 99.0986 109.879 99.1377 109.887C99.1846 109.887 99.2822 109.891 99.4307 109.899V113.321C99.2197 113.297 99.0322 113.282 98.8682 113.274C98.7041 113.266 98.5713 113.262 98.4697 113.262C97.126 113.262 96.2236 113.7 95.7627 114.575C95.5049 115.067 95.376 115.825 95.376 116.848V122.953H92.0127V110.18H95.2002V112.407C95.7158 111.555 96.165 110.973 96.5479 110.66C97.1729 110.137 97.9854 109.875 98.9854 109.875ZM100.673 112.899V110.18H111.032V112.957L104.552 120.211H111.255V122.953H100.228V120.352L106.778 112.899H100.673ZM116.833 108.657H113.446V105.575H116.833V108.657ZM113.446 110.18H116.833V122.953H113.446V110.18ZM123.571 108.657H120.231V105.575H123.571V108.657ZM118.626 125.403C118.813 125.418 118.946 125.426 119.024 125.426C119.103 125.434 119.173 125.438 119.235 125.438C119.563 125.438 119.81 125.356 119.974 125.192C120.146 125.035 120.231 124.727 120.231 124.266V110.239H123.571V124.325C123.571 125.614 123.317 126.567 122.81 127.184C122.302 127.801 121.306 128.11 119.821 128.11C119.72 128.11 119.567 128.106 119.364 128.098C119.169 128.09 118.923 128.082 118.626 128.075V125.403ZM130.169 122.953H126.829V105.68H130.169V122.953Z" fill="white"/>
<path d="M33.3416 136.426H35.6365L42.8826 148.047V136.426H44.7283V150.772H42.5505L35.197 139.16V150.772H33.3416V136.426ZM51.9158 140.078C52.658 140.078 53.3774 140.254 54.074 140.606C54.7706 140.951 55.3012 141.4 55.6658 141.953C56.0173 142.481 56.2517 143.096 56.3689 143.799C56.4731 144.281 56.5251 145.049 56.5251 146.104H48.8591C48.8917 147.165 49.1423 148.018 49.6111 148.662C50.0798 149.3 50.8057 149.619 51.7888 149.619C52.7068 149.619 53.4392 149.317 53.9861 148.711C54.2986 148.359 54.5199 147.953 54.6501 147.49H56.3787C56.3331 147.874 56.1801 148.304 55.9197 148.779C55.6658 149.248 55.3793 149.632 55.0603 149.932C54.5264 150.453 53.8656 150.804 53.0779 150.986C52.6547 151.091 52.1762 151.143 51.6423 151.143C50.3403 151.143 49.2367 150.671 48.3318 149.727C47.4268 148.776 46.9744 147.448 46.9744 145.742C46.9744 144.063 47.4301 142.699 48.3416 141.651C49.253 140.602 50.4444 140.078 51.9158 140.078ZM54.7185 144.707C54.6469 143.945 54.4809 143.337 54.2205 142.881C53.7387 142.035 52.9347 141.611 51.8083 141.611C51.0011 141.611 50.324 141.904 49.7771 142.49C49.2302 143.07 48.9405 143.809 48.908 144.707H54.7185ZM59.8064 145.664C59.8064 146.784 60.044 147.721 60.5193 148.477C60.9945 149.232 61.7563 149.609 62.8044 149.609C63.6182 149.609 64.2856 149.261 64.8064 148.565C65.3337 147.861 65.5974 146.856 65.5974 145.547C65.5974 144.225 65.3272 143.249 64.7869 142.617C64.2465 141.979 63.5792 141.66 62.7849 141.66C61.8995 141.66 61.1801 141.999 60.6267 142.676C60.0798 143.353 59.8064 144.349 59.8064 145.664ZM62.4529 140.127C63.2537 140.127 63.9242 140.296 64.4646 140.635C64.7771 140.83 65.1319 141.172 65.5291 141.66V136.377H67.2185V150.772H65.6365V149.317C65.2263 149.961 64.7413 150.427 64.1814 150.713C63.6215 150.999 62.9802 151.143 62.2576 151.143C61.0922 151.143 60.0831 150.654 59.2302 149.678C58.3774 148.695 57.9509 147.389 57.9509 145.762C57.9509 144.238 58.3383 142.92 59.113 141.807C59.8943 140.687 61.0076 140.127 62.4529 140.127ZM74.1814 140.078C74.9236 140.078 75.643 140.254 76.3396 140.606C77.0362 140.951 77.5668 141.4 77.9314 141.953C78.283 142.481 78.5173 143.096 78.6345 143.799C78.7387 144.281 78.7908 145.049 78.7908 146.104H71.1248C71.1573 147.165 71.408 148.018 71.8767 148.662C72.3455 149.3 73.0714 149.619 74.0544 149.619C74.9724 149.619 75.7048 149.317 76.2517 148.711C76.5642 148.359 76.7856 147.953 76.9158 147.49H78.6443C78.5987 147.874 78.4457 148.304 78.1853 148.779C77.9314 149.248 77.6449 149.632 77.3259 149.932C76.7921 150.453 76.1313 150.804 75.3435 150.986C74.9203 151.091 74.4418 151.143 73.908 151.143C72.6059 151.143 71.5024 150.671 70.5974 149.727C69.6925 148.776 69.24 147.448 69.24 145.742C69.24 144.063 69.6957 142.699 70.6072 141.651C71.5186 140.602 72.71 140.078 74.1814 140.078ZM76.9841 144.707C76.9125 143.945 76.7465 143.337 76.4861 142.881C76.0043 142.035 75.2003 141.611 74.074 141.611C73.2667 141.611 72.5896 141.904 72.0427 142.49C71.4958 143.07 71.2061 143.809 71.1736 144.707H76.9841ZM81.0076 140.313H82.6775V142.119C82.8142 141.768 83.1495 141.341 83.6833 140.84C84.2172 140.332 84.8324 140.078 85.5291 140.078C85.5616 140.078 85.6169 140.082 85.6951 140.088C85.7732 140.095 85.9067 140.108 86.0955 140.127V141.983C85.9913 141.963 85.8936 141.95 85.8025 141.943C85.7179 141.937 85.6235 141.934 85.5193 141.934C84.6339 141.934 83.9535 142.22 83.4783 142.793C83.003 143.359 82.7654 144.014 82.7654 144.756V150.772H81.0076V140.313ZM87.6677 136.426H89.4255V150.772H87.6677V136.426ZM93.4197 147.988C93.4197 148.496 93.6052 148.897 93.9763 149.19C94.3474 149.483 94.7869 149.629 95.2947 149.629C95.9132 149.629 96.5121 149.486 97.0916 149.199C98.0681 148.724 98.5564 147.946 98.5564 146.865V145.449C98.3416 145.586 98.0649 145.7 97.7263 145.791C97.3878 145.882 97.0557 145.947 96.7302 145.986L95.6658 146.123C95.0278 146.208 94.5492 146.341 94.2302 146.524C93.6899 146.83 93.4197 147.318 93.4197 147.988ZM97.6775 144.434C98.0811 144.382 98.3513 144.212 98.488 143.926C98.5662 143.77 98.6052 143.545 98.6052 143.252C98.6052 142.653 98.3904 142.22 97.9607 141.953C97.5375 141.68 96.9288 141.543 96.1345 141.543C95.2166 141.543 94.5655 141.79 94.1814 142.285C93.9666 142.559 93.8266 142.966 93.7615 143.506H92.1208C92.1534 142.217 92.5701 141.322 93.3708 140.82C94.1781 140.313 95.1124 140.059 96.1736 140.059C97.4041 140.059 98.4034 140.293 99.1716 140.762C99.9333 141.231 100.314 141.96 100.314 142.949V148.975C100.314 149.157 100.35 149.304 100.422 149.414C100.5 149.525 100.659 149.58 100.9 149.58C100.978 149.58 101.066 149.577 101.164 149.57C101.261 149.557 101.366 149.541 101.476 149.522V150.82C101.203 150.899 100.995 150.947 100.851 150.967C100.708 150.986 100.513 150.996 100.265 150.996C99.6599 150.996 99.2205 150.781 98.947 150.352C98.8038 150.124 98.7029 149.802 98.6443 149.385C98.2862 149.854 97.7719 150.261 97.1013 150.606C96.4307 150.951 95.6918 151.123 94.8845 151.123C93.9145 151.123 93.1202 150.83 92.5017 150.244C91.8897 149.652 91.5837 148.913 91.5837 148.027C91.5837 147.057 91.8865 146.305 92.4919 145.772C93.0974 145.238 93.8917 144.909 94.8748 144.785L97.6775 144.434ZM103.205 140.313H104.875V141.797C105.37 141.185 105.894 140.746 106.447 140.479C107 140.212 107.616 140.078 108.293 140.078C109.777 140.078 110.78 140.596 111.301 141.631C111.587 142.197 111.73 143.008 111.73 144.063V150.772H109.943V144.18C109.943 143.542 109.849 143.027 109.66 142.637C109.347 141.986 108.781 141.66 107.961 141.66C107.544 141.66 107.202 141.703 106.935 141.787C106.454 141.93 106.03 142.217 105.666 142.647C105.373 142.992 105.181 143.35 105.09 143.721C105.005 144.085 104.963 144.609 104.963 145.293V150.772H103.205V140.313ZM115.451 145.664C115.451 146.784 115.689 147.721 116.164 148.477C116.639 149.232 117.401 149.609 118.449 149.609C119.263 149.609 119.93 149.261 120.451 148.565C120.978 147.861 121.242 146.856 121.242 145.547C121.242 144.225 120.972 143.249 120.431 142.617C119.891 141.979 119.224 141.66 118.429 141.66C117.544 141.66 116.825 141.999 116.271 142.676C115.724 143.353 115.451 144.349 115.451 145.664ZM118.097 140.127C118.898 140.127 119.569 140.296 120.109 140.635C120.422 140.83 120.776 141.172 121.174 141.66V136.377H122.863V150.772H121.281V149.317C120.871 149.961 120.386 150.427 119.826 150.713C119.266 150.999 118.625 151.143 117.902 151.143C116.737 151.143 115.728 150.654 114.875 149.678C114.022 148.695 113.595 147.389 113.595 145.762C113.595 144.238 113.983 142.92 114.758 141.807C115.539 140.687 116.652 140.127 118.097 140.127Z" fill="white" fill-opacity="0.75"/>
<path d="M41.2842 178.635C42.1956 178.635 42.915 178.452 43.4424 178.088C43.9762 177.723 44.2432 177.066 44.2432 176.115C44.2432 175.093 43.8721 174.396 43.1299 174.025C42.7327 173.83 42.2021 173.732 41.5381 173.732H36.792V178.635H41.2842ZM34.8486 172.062H41.4893C42.583 172.062 43.4847 172.222 44.1943 172.541C45.542 173.153 46.2158 174.282 46.2158 175.929C46.2158 176.789 46.0368 177.492 45.6787 178.039C45.3271 178.586 44.8324 179.025 44.1943 179.357C44.7542 179.585 45.1742 179.885 45.4541 180.256C45.7406 180.627 45.9001 181.229 45.9326 182.062L46.001 183.986C46.0205 184.533 46.0661 184.94 46.1377 185.207C46.2549 185.663 46.4632 185.955 46.7627 186.086V186.408H44.3799C44.3148 186.284 44.2627 186.125 44.2236 185.929C44.1846 185.734 44.152 185.357 44.126 184.797L44.0088 182.404C43.9632 181.467 43.6149 180.838 42.9639 180.519C42.5928 180.344 42.0101 180.256 41.2158 180.256H36.792V186.408H34.8486V172.062ZM52.9834 185.275C54.1488 185.275 54.9463 184.836 55.376 183.957C55.8122 183.071 56.0303 182.088 56.0303 181.008C56.0303 180.031 55.874 179.237 55.5615 178.625C55.0667 177.661 54.2139 177.179 53.0029 177.179C51.9287 177.179 51.1475 177.59 50.6592 178.41C50.1709 179.23 49.9268 180.22 49.9268 181.379C49.9268 182.492 50.1709 183.42 50.6592 184.162C51.1475 184.904 51.9222 185.275 52.9834 185.275ZM53.0518 175.646C54.3994 175.646 55.5387 176.095 56.4697 176.994C57.4007 177.892 57.8662 179.214 57.8662 180.959C57.8662 182.645 57.4561 184.038 56.6357 185.138C55.8154 186.239 54.5426 186.789 52.8174 186.789C51.3786 186.789 50.236 186.304 49.3896 185.334C48.5433 184.357 48.1201 183.049 48.1201 181.408C48.1201 179.65 48.5661 178.25 49.458 177.209C50.3499 176.167 51.5479 175.646 53.0518 175.646ZM59.9658 175.949H61.6357V177.433C62.1305 176.821 62.6546 176.382 63.208 176.115C63.7614 175.848 64.3766 175.715 65.0537 175.715C66.5381 175.715 67.5407 176.232 68.0615 177.267C68.348 177.834 68.4912 178.644 68.4912 179.699V186.408H66.7041V179.816C66.7041 179.178 66.6097 178.664 66.4209 178.273C66.1084 177.622 65.542 177.297 64.7217 177.297C64.305 177.297 63.9632 177.339 63.6963 177.424C63.2145 177.567 62.7913 177.853 62.4268 178.283C62.1338 178.628 61.9417 178.986 61.8506 179.357C61.766 179.722 61.7236 180.246 61.7236 180.929V186.408H59.9658V175.949ZM72.2119 181.301C72.2119 182.42 72.4495 183.358 72.9248 184.113C73.4001 184.868 74.1618 185.246 75.21 185.246C76.0238 185.246 76.6911 184.898 77.2119 184.201C77.7393 183.498 78.0029 182.492 78.0029 181.183C78.0029 179.862 77.7327 178.885 77.1924 178.254C76.652 177.616 75.9847 177.297 75.1904 177.297C74.305 177.297 73.5856 177.635 73.0322 178.312C72.4854 178.989 72.2119 179.985 72.2119 181.301ZM74.8584 175.763C75.6592 175.763 76.3298 175.933 76.8701 176.271C77.1826 176.467 77.5374 176.808 77.9346 177.297V172.013H79.624V186.408H78.042V184.953C77.6318 185.597 77.1468 186.063 76.5869 186.349C76.027 186.636 75.3857 186.779 74.6631 186.779C73.4977 186.779 72.4886 186.291 71.6357 185.314C70.7829 184.331 70.3564 183.026 70.3564 181.398C70.3564 179.875 70.7438 178.556 71.5186 177.443C72.2998 176.323 73.4131 175.763 74.8584 175.763ZM86.5869 175.715C87.3291 175.715 88.0485 175.89 88.7451 176.242C89.4417 176.587 89.9723 177.036 90.3369 177.59C90.6885 178.117 90.9229 178.732 91.04 179.435C91.1442 179.917 91.1963 180.685 91.1963 181.74H83.5303C83.5628 182.801 83.8135 183.654 84.2822 184.299C84.751 184.937 85.4769 185.256 86.46 185.256C87.3779 185.256 88.1104 184.953 88.6572 184.347C88.9697 183.996 89.1911 183.589 89.3213 183.127H91.0498C91.0042 183.511 90.8512 183.941 90.5908 184.416C90.3369 184.885 90.0505 185.269 89.7314 185.568C89.1976 186.089 88.5368 186.441 87.749 186.623C87.3258 186.727 86.8473 186.779 86.3135 186.779C85.0114 186.779 83.9079 186.307 83.0029 185.363C82.098 184.413 81.6455 183.084 81.6455 181.379C81.6455 179.699 82.1012 178.335 83.0127 177.287C83.9242 176.239 85.1156 175.715 86.5869 175.715ZM89.3896 180.344C89.318 179.582 89.152 178.973 88.8916 178.517C88.4098 177.671 87.6058 177.248 86.4795 177.248C85.6722 177.248 84.9951 177.541 84.4482 178.127C83.9014 178.706 83.6117 179.445 83.5791 180.344H89.3896ZM99.5557 176.506V175.158C100.825 175.034 101.711 174.829 102.212 174.543C102.713 174.25 103.088 173.563 103.335 172.482H104.722V186.408H102.847V176.506H99.5557Z" fill="white" fill-opacity="0.75"/>
<path d="M33 0H171.727V71.4546C171.727 76.9774 167.25 81.4546 161.727 81.4546H43C37.4772 81.4546 33 76.9774 33 71.4546V0Z" fill="url(#paint0_linear_24_97)"/>
<path d="M52.9102 23.2812V21.0078C53.9648 20.9609 54.7031 20.8906 55.125 20.7969C55.7969 20.6484 56.3438 20.3516 56.7656 19.9062C57.0547 19.6016 57.2734 19.1953 57.4219 18.6875C57.5078 18.3828 57.5508 18.1562 57.5508 18.0078H60.3281V35H56.9062V23.2812H52.9102ZM65.3203 23.9844C65.3203 22.1641 65.8438 20.6914 66.8906 19.5664C67.9453 18.4336 69.3125 17.8672 70.9922 17.8672C73.5781 17.8672 75.3516 19.0117 76.3125 21.3008C76.8594 22.5977 77.1328 24.3047 77.1328 26.4219C77.1328 28.4766 76.8711 30.1914 76.3477 31.5664C75.3477 34.1836 73.5117 35.4922 70.8398 35.4922C69.5664 35.4922 68.4219 35.1172 67.4062 34.3672C66.3906 33.6094 65.8086 32.5078 65.6602 31.0625H68.9883C69.0664 31.5625 69.2773 31.9688 69.6211 32.2812C69.9648 32.5938 70.4219 32.75 70.9922 32.75C72.0938 32.75 72.8672 32.1406 73.3125 30.9219C73.5547 30.25 73.707 29.2695 73.7695 27.9805C73.4648 28.3633 73.1406 28.6562 72.7969 28.8594C72.1719 29.2344 71.4023 29.4219 70.4883 29.4219C69.1367 29.4219 67.9375 28.957 66.8906 28.0273C65.8438 27.0898 65.3203 25.7422 65.3203 23.9844ZM71.2148 26.7031C71.6758 26.7031 72.1094 26.5703 72.5156 26.3047C73.2734 25.8203 73.6523 24.9805 73.6523 23.7852C73.6523 22.8242 73.4258 22.0625 72.9727 21.5C72.5273 20.9375 71.9141 20.6562 71.1328 20.6562C70.5625 20.6562 70.0742 20.8164 69.668 21.1367C69.0273 21.6367 68.707 22.4844 68.707 23.6797C68.707 24.6875 68.9102 25.4453 69.3164 25.9531C69.7305 26.4531 70.3633 26.7031 71.2148 26.7031ZM98.5547 26.7266H105.281V29.8906H98.5547V26.7266ZM126.785 35C126.816 33.7812 127.078 32.668 127.57 31.6602C128.047 30.5273 129.172 29.3281 130.945 28.0625C132.484 26.9609 133.48 26.1719 133.934 25.6953C134.629 24.9531 134.977 24.1406 134.977 23.2578C134.977 22.5391 134.777 21.9414 134.379 21.4648C133.98 20.9883 133.41 20.75 132.668 20.75C131.652 20.75 130.961 21.1289 130.594 21.8867C130.383 22.3242 130.258 23.0195 130.219 23.9727H126.973C127.027 22.5273 127.289 21.3594 127.758 20.4688C128.648 18.7734 130.23 17.9258 132.504 17.9258C134.301 17.9258 135.73 18.4258 136.793 19.4258C137.855 20.418 138.387 21.7344 138.387 23.375C138.387 24.6328 138.012 25.75 137.262 26.7266C136.77 27.375 135.961 28.0977 134.836 28.8945L133.5 29.8438C132.664 30.4375 132.09 30.8672 131.777 31.1328C131.473 31.3984 131.215 31.707 131.004 32.0586H138.422V35H126.785ZM143.555 26.668C143.555 28.6211 143.715 30.1172 144.035 31.1562C144.355 32.1875 145.012 32.7031 146.004 32.7031C146.996 32.7031 147.645 32.1875 147.949 31.1562C148.262 30.1172 148.418 28.6211 148.418 26.668C148.418 24.6211 148.262 23.1055 147.949 22.1211C147.645 21.1367 146.996 20.6445 146.004 20.6445C145.012 20.6445 144.355 21.1367 144.035 22.1211C143.715 23.1055 143.555 24.6211 143.555 26.668ZM146.004 17.8906C148.168 17.8906 149.684 18.6523 150.551 20.1758C151.426 21.6992 151.863 23.8633 151.863 26.668C151.863 29.4727 151.426 31.6328 150.551 33.1484C149.684 34.6641 148.168 35.4219 146.004 35.4219C143.84 35.4219 142.32 34.6641 141.445 33.1484C140.578 31.6328 140.145 29.4727 140.145 26.668C140.145 23.8633 140.578 21.6992 141.445 20.1758C142.32 18.6523 143.84 17.8906 146.004 17.8906ZM95.2617 45.7266H100.453V63H97.0898V51.3164C97.0898 50.9805 97.0938 50.5117 97.1016 49.9102C97.1094 49.3008 97.1133 48.832 97.1133 48.5039L93.8438 63H90.3398L87.0938 48.5039C87.0938 48.832 87.0977 49.3008 87.1055 49.9102C87.1133 50.5117 87.1172 50.9805 87.1172 51.3164V63H83.7539V45.7266H89.0039L92.1445 59.3086L95.2617 45.7266ZM108.574 52.6406C107.801 52.6406 107.199 52.8828 106.77 53.3672C106.348 53.8516 106.082 54.5078 105.973 55.3359H111.164C111.109 54.4531 110.84 53.7852 110.355 53.332C109.879 52.8711 109.285 52.6406 108.574 52.6406ZM108.574 49.8867C109.637 49.8867 110.594 50.0859 111.445 50.4844C112.297 50.8828 113 51.5117 113.555 52.3711C114.055 53.1289 114.379 54.0078 114.527 55.0078C114.613 55.5938 114.648 56.4375 114.633 57.5391H105.891C105.938 58.8203 106.34 59.7188 107.098 60.2344C107.559 60.5547 108.113 60.7148 108.762 60.7148C109.449 60.7148 110.008 60.5195 110.438 60.1289C110.672 59.918 110.879 59.625 111.059 59.25H114.469C114.383 60.0078 113.988 60.7773 113.285 61.5586C112.191 62.8008 110.66 63.4219 108.691 63.4219C107.066 63.4219 105.633 62.8984 104.391 61.8516C103.148 60.8047 102.527 59.1016 102.527 56.7422C102.527 54.5312 103.086 52.8359 104.203 51.6562C105.328 50.4766 106.785 49.8867 108.574 49.8867ZM120.328 48.7031H116.941V45.6211H120.328V48.7031ZM116.941 50.2266H120.328V63H116.941V50.2266Z" fill="white"/>
<defs>
<linearGradient id="paint0_linear_24_97" x1="33" y1="0" x2="283.727" y2="160.364" gradientUnits="userSpaceOnUse">
<stop stop-color="#FF0000"/>
<stop offset="1" stop-color="#FF0000" stop-opacity="0"/>
</linearGradient>
</defs>
</svg>
