<svg width="350" height="259" viewBox="0 0 350 259" fill="none" xmlns="http://www.w3.org/2000/svg">
<path d="M0 15C0 6.71573 6.71573 0 15 0H335C343.284 0 350 6.71573 350 15V222C350 230.284 343.284 237 335 237H15C6.71574 237 0 230.284 0 222V15Z" fill="#333333"/>
<mask id="path-2-inside-1_24_110" fill="white">
<path d="M0 219H350V253.455C350 256.216 347.761 258.455 345 258.455H4.99999C2.23857 258.455 0 256.216 0 253.455V219Z"/>
</mask>
<path d="M0 219H350V253.455C350 256.216 347.761 258.455 345 258.455H4.99999C2.23857 258.455 0 256.216 0 253.455V219Z" fill="#767676"/>
<path d="M0 218H350V220H0V218ZM350 258.455H0H350ZM0 258.455V219V258.455ZM350 219V258.455V219Z" fill="#B5B5B5" mask="url(#path-2-inside-1_24_110)"/>
<path d="M47.4697 105.272V108.331H42.3018V122.545H38.6689V108.331H33.4775V105.272H47.4697ZM52.5791 112.186C51.8057 112.186 51.2041 112.428 50.7744 112.913C50.3525 113.397 50.0869 114.053 49.9775 114.881H55.1689C55.1143 113.999 54.8447 113.331 54.3604 112.878C53.8838 112.417 53.29 112.186 52.5791 112.186ZM52.5791 109.432C53.6416 109.432 54.5986 109.631 55.4502 110.03C56.3018 110.428 57.0049 111.057 57.5596 111.917C58.0596 112.674 58.3838 113.553 58.5322 114.553C58.6182 115.139 58.6533 115.983 58.6377 117.085H49.8955C49.9424 118.366 50.3447 119.264 51.1025 119.78C51.5635 120.1 52.1182 120.26 52.7666 120.26C53.4541 120.26 54.0127 120.065 54.4424 119.674C54.6768 119.463 54.8838 119.17 55.0635 118.795H58.4736C58.3877 119.553 57.9932 120.323 57.29 121.104C56.1963 122.346 54.665 122.967 52.6963 122.967C51.0713 122.967 49.6377 122.444 48.3955 121.397C47.1533 120.35 46.5322 118.647 46.5322 116.288C46.5322 114.077 47.0908 112.381 48.208 111.202C49.333 110.022 50.79 109.432 52.5791 109.432ZM67.8369 109.467C67.8994 109.467 67.9502 109.471 67.9893 109.479C68.0361 109.479 68.1338 109.483 68.2822 109.491V112.913C68.0713 112.889 67.8838 112.874 67.7197 112.866C67.5557 112.858 67.4229 112.854 67.3213 112.854C65.9775 112.854 65.0752 113.292 64.6143 114.167C64.3564 114.659 64.2275 115.417 64.2275 116.44V122.545H60.8643V109.772H64.0518V111.999C64.5674 111.147 65.0166 110.565 65.3994 110.253C66.0244 109.729 66.8369 109.467 67.8369 109.467ZM76.2744 109.772H79.6611L81.6064 118.971L83.5986 109.772H87.0791L83.376 122.545H79.9424L77.9385 113.241L75.9111 122.545H72.4424L68.8564 109.772H72.4424L74.4346 118.936L76.2744 109.772ZM94.6611 120.19C95.6377 120.19 96.3877 119.842 96.9111 119.147C97.4346 118.452 97.6963 117.463 97.6963 116.182C97.6963 114.901 97.4346 113.917 96.9111 113.229C96.3877 112.534 95.6377 112.186 94.6611 112.186C93.6846 112.186 92.9307 112.534 92.3994 113.229C91.876 113.917 91.6143 114.901 91.6143 116.182C91.6143 117.463 91.876 118.452 92.3994 119.147C92.9307 119.842 93.6846 120.19 94.6611 120.19ZM101.2 116.182C101.2 118.057 100.661 119.663 99.583 120.999C98.5049 122.327 96.8682 122.991 94.6729 122.991C92.4775 122.991 90.8408 122.327 89.7627 120.999C88.6846 119.663 88.1455 118.057 88.1455 116.182C88.1455 114.338 88.6846 112.741 89.7627 111.389C90.8408 110.038 92.4775 109.362 94.6729 109.362C96.8682 109.362 98.5049 110.038 99.583 111.389C100.661 112.741 101.2 114.338 101.2 116.182ZM107.013 122.545H103.673V105.272H107.013V122.545ZM114.993 109.467C115.767 109.467 116.454 109.639 117.056 109.983C117.657 110.319 118.146 110.788 118.521 111.389V105.295H121.907V122.545H118.661V120.776C118.185 121.534 117.642 122.085 117.032 122.428C116.423 122.772 115.665 122.944 114.759 122.944C113.267 122.944 112.009 122.342 110.985 121.139C109.97 119.928 109.462 118.378 109.462 116.487C109.462 114.307 109.962 112.592 110.962 111.342C111.97 110.092 113.313 109.467 114.993 109.467ZM115.72 120.131C116.665 120.131 117.384 119.78 117.876 119.077C118.368 118.374 118.614 117.463 118.614 116.346C118.614 114.784 118.22 113.667 117.431 112.995C116.946 112.588 116.384 112.385 115.743 112.385C114.767 112.385 114.048 112.756 113.587 113.499C113.134 114.233 112.907 115.147 112.907 116.241C112.907 117.42 113.138 118.366 113.599 119.077C114.067 119.78 114.774 120.131 115.72 120.131ZM129.993 112.186C129.22 112.186 128.618 112.428 128.188 112.913C127.767 113.397 127.501 114.053 127.392 114.881H132.583C132.528 113.999 132.259 113.331 131.774 112.878C131.298 112.417 130.704 112.186 129.993 112.186ZM129.993 109.432C131.056 109.432 132.013 109.631 132.864 110.03C133.716 110.428 134.419 111.057 134.974 111.917C135.474 112.674 135.798 113.553 135.946 114.553C136.032 115.139 136.067 115.983 136.052 117.085H127.31C127.356 118.366 127.759 119.264 128.517 119.78C128.978 120.1 129.532 120.26 130.181 120.26C130.868 120.26 131.427 120.065 131.856 119.674C132.091 119.463 132.298 119.17 132.478 118.795H135.888C135.802 119.553 135.407 120.323 134.704 121.104C133.61 122.346 132.079 122.967 130.11 122.967C128.485 122.967 127.052 122.444 125.81 121.397C124.567 120.35 123.946 118.647 123.946 116.288C123.946 114.077 124.505 112.381 125.622 111.202C126.747 110.022 128.204 109.432 129.993 109.432Z" fill="white"/>
<path d="M33.3416 136.018H35.6365L42.8826 147.639V136.018H44.7283V150.364H42.5505L35.197 138.752V150.364H33.3416V136.018ZM51.9158 139.67C52.658 139.67 53.3774 139.846 54.074 140.198C54.7706 140.543 55.3012 140.992 55.6658 141.545C56.0173 142.073 56.2517 142.688 56.3689 143.391C56.4731 143.873 56.5251 144.641 56.5251 145.696H48.8591C48.8917 146.757 49.1423 147.61 49.6111 148.254C50.0798 148.892 50.8057 149.211 51.7888 149.211C52.7068 149.211 53.4392 148.909 53.9861 148.303C54.2986 147.952 54.5199 147.545 54.6501 147.082H56.3787C56.3331 147.467 56.1801 147.896 55.9197 148.371C55.6658 148.84 55.3793 149.224 55.0603 149.524C54.5264 150.045 53.8656 150.396 53.0779 150.578C52.6547 150.683 52.1762 150.735 51.6423 150.735C50.3403 150.735 49.2367 150.263 48.3318 149.319C47.4268 148.368 46.9744 147.04 46.9744 145.334C46.9744 143.655 47.4301 142.291 48.3416 141.243C49.253 140.194 50.4444 139.67 51.9158 139.67ZM54.7185 144.299C54.6469 143.537 54.4809 142.929 54.2205 142.473C53.7387 141.627 52.9347 141.203 51.8083 141.203C51.0011 141.203 50.324 141.496 49.7771 142.082C49.2302 142.662 48.9405 143.401 48.908 144.299H54.7185ZM59.8064 145.256C59.8064 146.376 60.044 147.314 60.5193 148.069C60.9945 148.824 61.7563 149.202 62.8044 149.202C63.6182 149.202 64.2856 148.853 64.8064 148.157C65.3337 147.453 65.5974 146.448 65.5974 145.139C65.5974 143.817 65.3272 142.841 64.7869 142.209C64.2465 141.571 63.5792 141.252 62.7849 141.252C61.8995 141.252 61.1801 141.591 60.6267 142.268C60.0798 142.945 59.8064 143.941 59.8064 145.256ZM62.4529 139.719C63.2537 139.719 63.9242 139.888 64.4646 140.227C64.7771 140.422 65.1319 140.764 65.5291 141.252V135.969H67.2185V150.364H65.6365V148.909C65.2263 149.553 64.7413 150.019 64.1814 150.305C63.6215 150.592 62.9802 150.735 62.2576 150.735C61.0922 150.735 60.0831 150.246 59.2302 149.27C58.3774 148.287 57.9509 146.981 57.9509 145.354C57.9509 143.83 58.3383 142.512 59.113 141.399C59.8943 140.279 61.0076 139.719 62.4529 139.719ZM74.1814 139.67C74.9236 139.67 75.643 139.846 76.3396 140.198C77.0362 140.543 77.5668 140.992 77.9314 141.545C78.283 142.073 78.5173 142.688 78.6345 143.391C78.7387 143.873 78.7908 144.641 78.7908 145.696H71.1248C71.1573 146.757 71.408 147.61 71.8767 148.254C72.3455 148.892 73.0714 149.211 74.0544 149.211C74.9724 149.211 75.7048 148.909 76.2517 148.303C76.5642 147.952 76.7856 147.545 76.9158 147.082H78.6443C78.5987 147.467 78.4457 147.896 78.1853 148.371C77.9314 148.84 77.6449 149.224 77.3259 149.524C76.7921 150.045 76.1313 150.396 75.3435 150.578C74.9203 150.683 74.4418 150.735 73.908 150.735C72.6059 150.735 71.5024 150.263 70.5974 149.319C69.6925 148.368 69.24 147.04 69.24 145.334C69.24 143.655 69.6957 142.291 70.6072 141.243C71.5186 140.194 72.71 139.67 74.1814 139.67ZM76.9841 144.299C76.9125 143.537 76.7465 142.929 76.4861 142.473C76.0043 141.627 75.2003 141.203 74.074 141.203C73.2667 141.203 72.5896 141.496 72.0427 142.082C71.4958 142.662 71.2061 143.401 71.1736 144.299H76.9841ZM81.0076 139.905H82.6775V141.711C82.8142 141.36 83.1495 140.933 83.6833 140.432C84.2172 139.924 84.8324 139.67 85.5291 139.67C85.5616 139.67 85.6169 139.674 85.6951 139.68C85.7732 139.687 85.9067 139.7 86.0955 139.719V141.575C85.9913 141.555 85.8936 141.542 85.8025 141.536C85.7179 141.529 85.6235 141.526 85.5193 141.526C84.6339 141.526 83.9535 141.812 83.4783 142.385C83.003 142.952 82.7654 143.606 82.7654 144.348V150.364H81.0076V139.905ZM87.6677 136.018H89.4255V150.364H87.6677V136.018ZM93.4197 147.58C93.4197 148.088 93.6052 148.489 93.9763 148.782C94.3474 149.075 94.7869 149.221 95.2947 149.221C95.9132 149.221 96.5121 149.078 97.0916 148.791C98.0681 148.316 98.5564 147.538 98.5564 146.457V145.041C98.3416 145.178 98.0649 145.292 97.7263 145.383C97.3878 145.474 97.0557 145.539 96.7302 145.578L95.6658 145.715C95.0278 145.8 94.5492 145.933 94.2302 146.116C93.6899 146.422 93.4197 146.91 93.4197 147.58ZM97.6775 144.026C98.0811 143.974 98.3513 143.804 98.488 143.518C98.5662 143.362 98.6052 143.137 98.6052 142.844C98.6052 142.245 98.3904 141.812 97.9607 141.545C97.5375 141.272 96.9288 141.135 96.1345 141.135C95.2166 141.135 94.5655 141.383 94.1814 141.877C93.9666 142.151 93.8266 142.558 93.7615 143.098H92.1208C92.1534 141.809 92.5701 140.914 93.3708 140.412C94.1781 139.905 95.1124 139.651 96.1736 139.651C97.4041 139.651 98.4034 139.885 99.1716 140.354C99.9333 140.823 100.314 141.552 100.314 142.541V148.567C100.314 148.749 100.35 148.896 100.422 149.006C100.5 149.117 100.659 149.172 100.9 149.172C100.978 149.172 101.066 149.169 101.164 149.162C101.261 149.149 101.366 149.133 101.476 149.114V150.412C101.203 150.491 100.995 150.539 100.851 150.559C100.708 150.578 100.513 150.588 100.265 150.588C99.6599 150.588 99.2205 150.373 98.947 149.944C98.8038 149.716 98.7029 149.394 98.6443 148.977C98.2862 149.446 97.7719 149.853 97.1013 150.198C96.4307 150.543 95.6918 150.715 94.8845 150.715C93.9145 150.715 93.1202 150.422 92.5017 149.836C91.8897 149.244 91.5837 148.505 91.5837 147.62C91.5837 146.649 91.8865 145.898 92.4919 145.364C93.0974 144.83 93.8917 144.501 94.8748 144.377L97.6775 144.026ZM103.205 139.905H104.875V141.389C105.37 140.777 105.894 140.338 106.447 140.071C107 139.804 107.616 139.67 108.293 139.67C109.777 139.67 110.78 140.188 111.301 141.223C111.587 141.789 111.73 142.6 111.73 143.655V150.364H109.943V143.772C109.943 143.134 109.849 142.62 109.66 142.229C109.347 141.578 108.781 141.252 107.961 141.252C107.544 141.252 107.202 141.295 106.935 141.379C106.454 141.523 106.03 141.809 105.666 142.239C105.373 142.584 105.181 142.942 105.09 143.313C105.005 143.677 104.963 144.202 104.963 144.885V150.364H103.205V139.905ZM115.451 145.256C115.451 146.376 115.689 147.314 116.164 148.069C116.639 148.824 117.401 149.202 118.449 149.202C119.263 149.202 119.93 148.853 120.451 148.157C120.978 147.453 121.242 146.448 121.242 145.139C121.242 143.817 120.972 142.841 120.431 142.209C119.891 141.571 119.224 141.252 118.429 141.252C117.544 141.252 116.825 141.591 116.271 142.268C115.724 142.945 115.451 143.941 115.451 145.256ZM118.097 139.719C118.898 139.719 119.569 139.888 120.109 140.227C120.422 140.422 120.776 140.764 121.174 141.252V135.969H122.863V150.364H121.281V148.909C120.871 149.553 120.386 150.019 119.826 150.305C119.266 150.592 118.625 150.735 117.902 150.735C116.737 150.735 115.728 150.246 114.875 149.27C114.022 148.287 113.595 146.981 113.595 145.354C113.595 143.83 113.983 142.512 114.758 141.399C115.539 140.279 116.652 139.719 118.097 139.719Z" fill="white" fill-opacity="0.75"/>
<path d="M41.2842 178.227C42.1956 178.227 42.915 178.044 43.4424 177.68C43.9762 177.315 44.2432 176.658 44.2432 175.707C44.2432 174.685 43.8721 173.988 43.1299 173.617C42.7327 173.422 42.2021 173.324 41.5381 173.324H36.792V178.227H41.2842ZM34.8486 171.654H41.4893C42.583 171.654 43.4847 171.814 44.1943 172.133C45.542 172.745 46.2158 173.874 46.2158 175.521C46.2158 176.381 46.0368 177.084 45.6787 177.631C45.3271 178.178 44.8324 178.617 44.1943 178.949C44.7542 179.177 45.1742 179.477 45.4541 179.848C45.7406 180.219 45.9001 180.821 45.9326 181.654L46.001 183.578C46.0205 184.125 46.0661 184.532 46.1377 184.799C46.2549 185.255 46.4632 185.548 46.7627 185.678V186H44.3799C44.3148 185.876 44.2627 185.717 44.2236 185.521C44.1846 185.326 44.152 184.949 44.126 184.389L44.0088 181.996C43.9632 181.059 43.6149 180.43 42.9639 180.111C42.5928 179.936 42.0101 179.848 41.2158 179.848H36.792V186H34.8486V171.654ZM52.9834 184.867C54.1488 184.867 54.9463 184.428 55.376 183.549C55.8122 182.663 56.0303 181.68 56.0303 180.6C56.0303 179.623 55.874 178.829 55.5615 178.217C55.0667 177.253 54.2139 176.771 53.0029 176.771C51.9287 176.771 51.1475 177.182 50.6592 178.002C50.1709 178.822 49.9268 179.812 49.9268 180.971C49.9268 182.084 50.1709 183.012 50.6592 183.754C51.1475 184.496 51.9222 184.867 52.9834 184.867ZM53.0518 175.238C54.3994 175.238 55.5387 175.688 56.4697 176.586C57.4007 177.484 57.8662 178.806 57.8662 180.551C57.8662 182.237 57.4561 183.63 56.6357 184.73C55.8154 185.831 54.5426 186.381 52.8174 186.381C51.3786 186.381 50.236 185.896 49.3896 184.926C48.5433 183.949 48.1201 182.641 48.1201 181C48.1201 179.242 48.5661 177.842 49.458 176.801C50.3499 175.759 51.5479 175.238 53.0518 175.238ZM59.9658 175.541H61.6357V177.025C62.1305 176.413 62.6546 175.974 63.208 175.707C63.7614 175.44 64.3766 175.307 65.0537 175.307C66.5381 175.307 67.5407 175.824 68.0615 176.859C68.348 177.426 68.4912 178.236 68.4912 179.291V186H66.7041V179.408C66.7041 178.77 66.6097 178.256 66.4209 177.865C66.1084 177.214 65.542 176.889 64.7217 176.889C64.305 176.889 63.9632 176.931 63.6963 177.016C63.2145 177.159 62.7913 177.445 62.4268 177.875C62.1338 178.22 61.9417 178.578 61.8506 178.949C61.766 179.314 61.7236 179.838 61.7236 180.521V186H59.9658V175.541ZM72.2119 180.893C72.2119 182.012 72.4495 182.95 72.9248 183.705C73.4001 184.46 74.1618 184.838 75.21 184.838C76.0238 184.838 76.6911 184.49 77.2119 183.793C77.7393 183.09 78.0029 182.084 78.0029 180.775C78.0029 179.454 77.7327 178.477 77.1924 177.846C76.652 177.208 75.9847 176.889 75.1904 176.889C74.305 176.889 73.5856 177.227 73.0322 177.904C72.4854 178.581 72.2119 179.577 72.2119 180.893ZM74.8584 175.355C75.6592 175.355 76.3298 175.525 76.8701 175.863C77.1826 176.059 77.5374 176.4 77.9346 176.889V171.605H79.624V186H78.042V184.545C77.6318 185.189 77.1468 185.655 76.5869 185.941C76.027 186.228 75.3857 186.371 74.6631 186.371C73.4977 186.371 72.4886 185.883 71.6357 184.906C70.7829 183.923 70.3564 182.618 70.3564 180.99C70.3564 179.467 70.7438 178.148 71.5186 177.035C72.2998 175.915 73.4131 175.355 74.8584 175.355ZM86.5869 175.307C87.3291 175.307 88.0485 175.482 88.7451 175.834C89.4417 176.179 89.9723 176.628 90.3369 177.182C90.6885 177.709 90.9229 178.324 91.04 179.027C91.1442 179.509 91.1963 180.277 91.1963 181.332H83.5303C83.5628 182.393 83.8135 183.246 84.2822 183.891C84.751 184.529 85.4769 184.848 86.46 184.848C87.3779 184.848 88.1104 184.545 88.6572 183.939C88.9697 183.588 89.1911 183.181 89.3213 182.719H91.0498C91.0042 183.103 90.8512 183.533 90.5908 184.008C90.3369 184.477 90.0505 184.861 89.7314 185.16C89.1976 185.681 88.5368 186.033 87.749 186.215C87.3258 186.319 86.8473 186.371 86.3135 186.371C85.0114 186.371 83.9079 185.899 83.0029 184.955C82.098 184.005 81.6455 182.676 81.6455 180.971C81.6455 179.291 82.1012 177.927 83.0127 176.879C83.9242 175.831 85.1156 175.307 86.5869 175.307ZM89.3896 179.936C89.318 179.174 89.152 178.565 88.8916 178.109C88.4098 177.263 87.6058 176.84 86.4795 176.84C85.6722 176.84 84.9951 177.133 84.4482 177.719C83.9014 178.298 83.6117 179.037 83.5791 179.936H89.3896ZM98.2666 186C98.3317 184.796 98.5791 183.747 99.0088 182.855C99.445 181.964 100.291 181.153 101.548 180.424L103.423 179.34C104.263 178.852 104.852 178.435 105.19 178.09C105.724 177.549 105.991 176.931 105.991 176.234C105.991 175.421 105.747 174.776 105.259 174.301C104.771 173.819 104.119 173.578 103.306 173.578C102.101 173.578 101.268 174.034 100.806 174.945C100.558 175.434 100.422 176.111 100.396 176.977H98.6084C98.6279 175.759 98.8525 174.766 99.2822 173.998C100.044 172.644 101.388 171.967 103.315 171.967C104.917 171.967 106.086 172.4 106.821 173.266C107.563 174.132 107.935 175.095 107.935 176.156C107.935 177.276 107.541 178.233 106.753 179.027C106.297 179.49 105.48 180.049 104.302 180.707L102.964 181.449C102.326 181.801 101.825 182.136 101.46 182.455C100.809 183.021 100.399 183.65 100.229 184.34H107.866V186H98.2666Z" fill="white" fill-opacity="0.75"/>
<path d="M33 0H171.727V71.4546C171.727 76.9774 167.25 81.4546 161.727 81.4546H43C37.4772 81.4546 33 76.9774 33 71.4546V0Z" fill="url(#paint0_linear_24_110)"/>
<path d="M49.1562 35C49.1875 33.7812 49.4492 32.668 49.9414 31.6602C50.418 30.5273 51.543 29.3281 53.3164 28.0625C54.8555 26.9609 55.8516 26.1719 56.3047 25.6953C57 24.9531 57.3477 24.1406 57.3477 23.2578C57.3477 22.5391 57.1484 21.9414 56.75 21.4648C56.3516 20.9883 55.7812 20.75 55.0391 20.75C54.0234 20.75 53.332 21.1289 52.9648 21.8867C52.7539 22.3242 52.6289 23.0195 52.5898 23.9727H49.3438C49.3984 22.5273 49.6602 21.3594 50.1289 20.4688C51.0195 18.7734 52.6016 17.9258 54.875 17.9258C56.6719 17.9258 58.1016 18.4258 59.1641 19.4258C60.2266 20.418 60.7578 21.7344 60.7578 23.375C60.7578 24.6328 60.3828 25.75 59.6328 26.7266C59.1406 27.375 58.332 28.0977 57.207 28.8945L55.8711 29.8438C55.0352 30.4375 54.4609 30.8672 54.1484 31.1328C53.8438 31.3984 53.5859 31.707 53.375 32.0586H60.793V35H49.1562ZM65.7266 30.4531C65.8594 31.1797 66.1133 31.7422 66.4883 32.1406C66.8633 32.5312 67.4102 32.7266 68.1289 32.7266C68.957 32.7266 69.5859 32.4375 70.0156 31.8594C70.4531 31.2734 70.6719 30.5391 70.6719 29.6562C70.6719 28.7891 70.4688 28.0586 70.0625 27.4648C69.6562 26.8633 69.0234 26.5625 68.1641 26.5625C67.7578 26.5625 67.4062 26.6133 67.1094 26.7148C66.5859 26.9023 66.1914 27.25 65.9258 27.7578L62.9258 27.6172L64.1211 18.2305H73.4844V21.0664H66.5352L65.9258 24.7812C66.4414 24.4453 66.8438 24.2227 67.1328 24.1133C67.6172 23.9336 68.207 23.8438 68.9023 23.8438C70.3086 23.8438 71.5352 24.3164 72.582 25.2617C73.6289 26.207 74.1523 27.582 74.1523 29.3867C74.1523 30.957 73.6484 32.3594 72.6406 33.5938C71.6328 34.8281 70.125 35.4453 68.1172 35.4453C66.5 35.4453 65.1719 35.0117 64.1328 34.1445C63.0938 33.2773 62.5156 32.0469 62.3984 30.4531H65.7266ZM102.395 26.7266H109.121V29.8906H102.395V26.7266ZM130.625 35C130.656 33.7812 130.918 32.668 131.41 31.6602C131.887 30.5273 133.012 29.3281 134.785 28.0625C136.324 26.9609 137.32 26.1719 137.773 25.6953C138.469 24.9531 138.816 24.1406 138.816 23.2578C138.816 22.5391 138.617 21.9414 138.219 21.4648C137.82 20.9883 137.25 20.75 136.508 20.75C135.492 20.75 134.801 21.1289 134.434 21.8867C134.223 22.3242 134.098 23.0195 134.059 23.9727H130.812C130.867 22.5273 131.129 21.3594 131.598 20.4688C132.488 18.7734 134.07 17.9258 136.344 17.9258C138.141 17.9258 139.57 18.4258 140.633 19.4258C141.695 20.418 142.227 21.7344 142.227 23.375C142.227 24.6328 141.852 25.75 141.102 26.7266C140.609 27.375 139.801 28.0977 138.676 28.8945L137.34 29.8438C136.504 30.4375 135.93 30.8672 135.617 31.1328C135.312 31.3984 135.055 31.707 134.844 32.0586H142.262V35H130.625ZM147.336 29.6211C147.336 30.5352 147.582 31.2812 148.074 31.8594C148.566 32.4375 149.191 32.7266 149.949 32.7266C150.691 32.7266 151.273 32.4492 151.695 31.8945C152.125 31.332 152.34 30.6055 152.34 29.7148C152.34 28.7227 152.098 27.9648 151.613 27.4414C151.129 26.9102 150.535 26.6445 149.832 26.6445C149.262 26.6445 148.758 26.8164 148.32 27.1602C147.664 27.668 147.336 28.4883 147.336 29.6211ZM152.035 22.2852C152.035 22.0117 151.93 21.7109 151.719 21.3828C151.359 20.8516 150.816 20.5859 150.09 20.5859C149.004 20.5859 148.23 21.1953 147.77 22.4141C147.52 23.0859 147.348 24.0781 147.254 25.3906C147.668 24.8984 148.148 24.5391 148.695 24.3125C149.242 24.0859 149.867 23.9727 150.57 23.9727C152.078 23.9727 153.312 24.4844 154.273 25.5078C155.242 26.5312 155.727 27.8398 155.727 29.4336C155.727 31.0195 155.254 32.418 154.309 33.6289C153.363 34.8398 151.895 35.4453 149.902 35.4453C147.762 35.4453 146.184 34.5508 145.168 32.7617C144.379 31.3633 143.984 29.5586 143.984 27.3477C143.984 26.0508 144.039 24.9961 144.148 24.1836C144.344 22.7383 144.723 21.5352 145.285 20.5742C145.77 19.7539 146.402 19.0938 147.184 18.5938C147.973 18.0938 148.914 17.8438 150.008 17.8438C151.586 17.8438 152.844 18.25 153.781 19.0625C154.719 19.8672 155.246 20.9414 155.363 22.2852H152.035ZM81.7461 56.4492V56.8477C81.7773 58.1836 81.9219 59.125 82.1797 59.6719C82.4453 60.2109 83.0078 60.4805 83.8672 60.4805C84.7188 60.4805 85.2812 60.1836 85.5547 59.5898C85.7188 59.2383 85.8008 58.6445 85.8008 57.8086V45.7266H89.4102V57.75C89.4102 59.2188 89.1562 60.3828 88.6484 61.2422C87.7891 62.6953 86.2383 63.4219 83.9961 63.4219C81.7539 63.4219 80.25 62.8359 79.4844 61.6641C78.7188 60.4844 78.3359 58.8789 78.3359 56.8477V56.4492H81.7461ZM96.0547 50.2266V57.9258C96.0547 58.6523 96.1406 59.1992 96.3125 59.5664C96.6172 60.2148 97.2148 60.5391 98.1055 60.5391C99.2461 60.5391 100.027 60.0781 100.449 59.1562C100.668 58.6562 100.777 57.9961 100.777 57.1758V50.2266H104.164V63H100.918V61.1953C100.887 61.2344 100.809 61.3516 100.684 61.5469C100.559 61.7422 100.41 61.9141 100.238 62.0625C99.7148 62.5312 99.207 62.8516 98.7148 63.0234C98.2305 63.1953 97.6602 63.2812 97.0039 63.2812C95.1133 63.2812 93.8398 62.6016 93.1836 61.2422C92.8164 60.4922 92.6328 59.3867 92.6328 57.9258V50.2266H96.0547ZM114.477 49.9219C115.797 49.9219 116.875 50.2695 117.711 50.9648C118.555 51.6523 118.977 52.7969 118.977 54.3984V63H115.555V55.2305C115.555 54.5586 115.465 54.043 115.285 53.6836C114.957 53.0273 114.332 52.6992 113.41 52.6992C112.277 52.6992 111.5 53.1797 111.078 54.1406C110.859 54.6484 110.75 55.2969 110.75 56.0859V63H107.422V50.25H110.645V52.1133C111.074 51.457 111.48 50.9844 111.863 50.6953C112.551 50.1797 113.422 49.9219 114.477 49.9219ZM125.504 48.7031H122.117V45.6211H125.504V48.7031ZM122.117 50.2266H125.504V63H122.117V50.2266Z" fill="white"/>
<defs>
<linearGradient id="paint0_linear_24_110" x1="33" y1="0" x2="283.727" y2="160.364" gradientUnits="userSpaceOnUse">
<stop stop-color="#FF0000"/>
<stop offset="1" stop-color="#FF0000" stop-opacity="0"/>
</linearGradient>
</defs>
</svg>
