<svg width="350" height="259" viewBox="0 0 350 259" fill="none" xmlns="http://www.w3.org/2000/svg">
<path d="M0 25C0 11.1929 11.1929 0 25 0H345C347.761 0 350 2.23858 350 5V233.364C350 247.171 338.807 258.364 325 258.364H4.99999C2.23857 258.364 0 256.125 0 253.364V25Z" fill="#333333"/>
<mask id="path-2-inside-1_24_123" fill="white">
<path d="M0 219H350V233.455C350 247.262 338.807 258.455 325 258.455H4.99999C2.23857 258.455 0 256.216 0 253.455V219Z"/>
</mask>
<path d="M0 219H350V233.455C350 247.262 338.807 258.455 325 258.455H4.99999C2.23857 258.455 0 256.216 0 253.455V219Z" fill="#767676"/>
<path d="M0 218H350V220H0V218ZM350 258.455H0H350ZM0 258.455V219V258.455ZM350 219V258.455V219Z" fill="#B5B5B5" mask="url(#path-2-inside-1_24_123)"/>
<path d="M47.4697 105.272V108.331H42.3018V122.545H38.6689V108.331H33.4775V105.272H47.4697ZM53.2705 120.19C54.2471 120.19 54.9971 119.842 55.5205 119.147C56.0439 118.452 56.3057 117.463 56.3057 116.182C56.3057 114.901 56.0439 113.917 55.5205 113.229C54.9971 112.534 54.2471 112.186 53.2705 112.186C52.2939 112.186 51.54 112.534 51.0088 113.229C50.4854 113.917 50.2236 114.901 50.2236 116.182C50.2236 117.463 50.4854 118.452 51.0088 119.147C51.54 119.842 52.2939 120.19 53.2705 120.19ZM59.8096 116.182C59.8096 118.057 59.2705 119.663 58.1924 120.999C57.1143 122.327 55.4775 122.991 53.2822 122.991C51.0869 122.991 49.4502 122.327 48.3721 120.999C47.2939 119.663 46.7549 118.057 46.7549 116.182C46.7549 114.338 47.2939 112.741 48.3721 111.389C49.4502 110.038 51.0869 109.362 53.2822 109.362C55.4775 109.362 57.1143 110.038 58.1924 111.389C59.2705 112.741 59.8096 114.338 59.8096 116.182ZM65.6221 122.545H62.2822V105.272H65.6221V122.545ZM73.6025 109.467C74.376 109.467 75.0635 109.639 75.665 109.983C76.2666 110.319 76.7549 110.788 77.1299 111.389V105.295H80.5166V122.545H77.2705V120.776C76.7939 121.534 76.251 122.085 75.6416 122.428C75.0322 122.772 74.2744 122.944 73.3682 122.944C71.876 122.944 70.6182 122.342 69.5947 121.139C68.5791 119.928 68.0713 118.378 68.0713 116.487C68.0713 114.307 68.5713 112.592 69.5713 111.342C70.5791 110.092 71.9229 109.467 73.6025 109.467ZM74.3291 120.131C75.2744 120.131 75.9932 119.78 76.4854 119.077C76.9775 118.374 77.2236 117.463 77.2236 116.346C77.2236 114.784 76.8291 113.667 76.04 112.995C75.5557 112.588 74.9932 112.385 74.3525 112.385C73.376 112.385 72.6572 112.756 72.1963 113.499C71.7432 114.233 71.5166 115.147 71.5166 116.241C71.5166 117.42 71.7471 118.366 72.208 119.077C72.6768 119.78 73.3838 120.131 74.3291 120.131ZM86.9971 108.249H83.6104V105.167H86.9971V108.249ZM83.6104 109.772H86.9971V122.545H83.6104V109.772ZM93.7354 108.249H90.3955V105.167H93.7354V108.249ZM88.79 124.995C88.9775 125.01 89.1104 125.018 89.1885 125.018C89.2666 125.026 89.3369 125.03 89.3994 125.03C89.7275 125.03 89.9736 124.948 90.1377 124.784C90.3096 124.628 90.3955 124.319 90.3955 123.858V109.831H93.7354V123.917C93.7354 125.206 93.4814 126.159 92.9736 126.776C92.4658 127.393 91.4697 127.702 89.9854 127.702C89.8838 127.702 89.7314 127.698 89.5283 127.69C89.333 127.682 89.0869 127.674 88.79 127.667V124.995ZM96.8877 105.331H100.169V114.635L104.329 109.831H108.466L104.001 114.717L108.642 122.545H104.61L101.552 117.085L100.169 118.526V122.545H96.8877V105.331Z" fill="white"/>
<path d="M33.3416 136.018H35.6365L42.8826 147.639V136.018H44.7283V150.364H42.5505L35.197 138.752V150.364H33.3416V136.018ZM51.9158 139.67C52.658 139.67 53.3774 139.846 54.074 140.198C54.7706 140.543 55.3012 140.992 55.6658 141.545C56.0173 142.073 56.2517 142.688 56.3689 143.391C56.4731 143.873 56.5251 144.641 56.5251 145.696H48.8591C48.8917 146.757 49.1423 147.61 49.6111 148.254C50.0798 148.892 50.8057 149.211 51.7888 149.211C52.7068 149.211 53.4392 148.909 53.9861 148.303C54.2986 147.952 54.5199 147.545 54.6501 147.082H56.3787C56.3331 147.467 56.1801 147.896 55.9197 148.371C55.6658 148.84 55.3793 149.224 55.0603 149.524C54.5264 150.045 53.8656 150.396 53.0779 150.578C52.6547 150.683 52.1762 150.735 51.6423 150.735C50.3403 150.735 49.2367 150.263 48.3318 149.319C47.4268 148.368 46.9744 147.04 46.9744 145.334C46.9744 143.655 47.4301 142.291 48.3416 141.243C49.253 140.194 50.4444 139.67 51.9158 139.67ZM54.7185 144.299C54.6469 143.537 54.4809 142.929 54.2205 142.473C53.7387 141.627 52.9347 141.203 51.8083 141.203C51.0011 141.203 50.324 141.496 49.7771 142.082C49.2302 142.662 48.9405 143.401 48.908 144.299H54.7185ZM59.8064 145.256C59.8064 146.376 60.044 147.314 60.5193 148.069C60.9945 148.824 61.7563 149.202 62.8044 149.202C63.6182 149.202 64.2856 148.853 64.8064 148.157C65.3337 147.453 65.5974 146.448 65.5974 145.139C65.5974 143.817 65.3272 142.841 64.7869 142.209C64.2465 141.571 63.5792 141.252 62.7849 141.252C61.8995 141.252 61.1801 141.591 60.6267 142.268C60.0798 142.945 59.8064 143.941 59.8064 145.256ZM62.4529 139.719C63.2537 139.719 63.9242 139.888 64.4646 140.227C64.7771 140.422 65.1319 140.764 65.5291 141.252V135.969H67.2185V150.364H65.6365V148.909C65.2263 149.553 64.7413 150.019 64.1814 150.305C63.6215 150.592 62.9802 150.735 62.2576 150.735C61.0922 150.735 60.0831 150.246 59.2302 149.27C58.3774 148.287 57.9509 146.981 57.9509 145.354C57.9509 143.83 58.3383 142.512 59.113 141.399C59.8943 140.279 61.0076 139.719 62.4529 139.719ZM74.1814 139.67C74.9236 139.67 75.643 139.846 76.3396 140.198C77.0362 140.543 77.5668 140.992 77.9314 141.545C78.283 142.073 78.5173 142.688 78.6345 143.391C78.7387 143.873 78.7908 144.641 78.7908 145.696H71.1248C71.1573 146.757 71.408 147.61 71.8767 148.254C72.3455 148.892 73.0714 149.211 74.0544 149.211C74.9724 149.211 75.7048 148.909 76.2517 148.303C76.5642 147.952 76.7856 147.545 76.9158 147.082H78.6443C78.5987 147.467 78.4457 147.896 78.1853 148.371C77.9314 148.84 77.6449 149.224 77.3259 149.524C76.7921 150.045 76.1313 150.396 75.3435 150.578C74.9203 150.683 74.4418 150.735 73.908 150.735C72.6059 150.735 71.5024 150.263 70.5974 149.319C69.6925 148.368 69.24 147.04 69.24 145.334C69.24 143.655 69.6957 142.291 70.6072 141.243C71.5186 140.194 72.71 139.67 74.1814 139.67ZM76.9841 144.299C76.9125 143.537 76.7465 142.929 76.4861 142.473C76.0043 141.627 75.2003 141.203 74.074 141.203C73.2667 141.203 72.5896 141.496 72.0427 142.082C71.4958 142.662 71.2061 143.401 71.1736 144.299H76.9841ZM81.0076 139.905H82.6775V141.711C82.8142 141.36 83.1495 140.933 83.6833 140.432C84.2172 139.924 84.8324 139.67 85.5291 139.67C85.5616 139.67 85.6169 139.674 85.6951 139.68C85.7732 139.687 85.9067 139.7 86.0955 139.719V141.575C85.9913 141.555 85.8936 141.542 85.8025 141.536C85.7179 141.529 85.6235 141.526 85.5193 141.526C84.6339 141.526 83.9535 141.812 83.4783 142.385C83.003 142.952 82.7654 143.606 82.7654 144.348V150.364H81.0076V139.905ZM87.6677 136.018H89.4255V150.364H87.6677V136.018ZM93.4197 147.58C93.4197 148.088 93.6052 148.489 93.9763 148.782C94.3474 149.075 94.7869 149.221 95.2947 149.221C95.9132 149.221 96.5121 149.078 97.0916 148.791C98.0681 148.316 98.5564 147.538 98.5564 146.457V145.041C98.3416 145.178 98.0649 145.292 97.7263 145.383C97.3878 145.474 97.0557 145.539 96.7302 145.578L95.6658 145.715C95.0278 145.8 94.5492 145.933 94.2302 146.116C93.6899 146.422 93.4197 146.91 93.4197 147.58ZM97.6775 144.026C98.0811 143.974 98.3513 143.804 98.488 143.518C98.5662 143.362 98.6052 143.137 98.6052 142.844C98.6052 142.245 98.3904 141.812 97.9607 141.545C97.5375 141.272 96.9288 141.135 96.1345 141.135C95.2166 141.135 94.5655 141.383 94.1814 141.877C93.9666 142.151 93.8266 142.558 93.7615 143.098H92.1208C92.1534 141.809 92.5701 140.914 93.3708 140.412C94.1781 139.905 95.1124 139.651 96.1736 139.651C97.4041 139.651 98.4034 139.885 99.1716 140.354C99.9333 140.823 100.314 141.552 100.314 142.541V148.567C100.314 148.749 100.35 148.896 100.422 149.006C100.5 149.117 100.659 149.172 100.9 149.172C100.978 149.172 101.066 149.169 101.164 149.162C101.261 149.149 101.366 149.133 101.476 149.114V150.412C101.203 150.491 100.995 150.539 100.851 150.559C100.708 150.578 100.513 150.588 100.265 150.588C99.6599 150.588 99.2205 150.373 98.947 149.944C98.8038 149.716 98.7029 149.394 98.6443 148.977C98.2862 149.446 97.7719 149.853 97.1013 150.198C96.4307 150.543 95.6918 150.715 94.8845 150.715C93.9145 150.715 93.1202 150.422 92.5017 149.836C91.8897 149.244 91.5837 148.505 91.5837 147.62C91.5837 146.649 91.8865 145.898 92.4919 145.364C93.0974 144.83 93.8917 144.501 94.8748 144.377L97.6775 144.026ZM103.205 139.905H104.875V141.389C105.37 140.777 105.894 140.338 106.447 140.071C107 139.804 107.616 139.67 108.293 139.67C109.777 139.67 110.78 140.188 111.301 141.223C111.587 141.789 111.73 142.6 111.73 143.655V150.364H109.943V143.772C109.943 143.134 109.849 142.62 109.66 142.229C109.347 141.578 108.781 141.252 107.961 141.252C107.544 141.252 107.202 141.295 106.935 141.379C106.454 141.523 106.03 141.809 105.666 142.239C105.373 142.584 105.181 142.942 105.09 143.313C105.005 143.677 104.963 144.202 104.963 144.885V150.364H103.205V139.905ZM115.451 145.256C115.451 146.376 115.689 147.314 116.164 148.069C116.639 148.824 117.401 149.202 118.449 149.202C119.263 149.202 119.93 148.853 120.451 148.157C120.978 147.453 121.242 146.448 121.242 145.139C121.242 143.817 120.972 142.841 120.431 142.209C119.891 141.571 119.224 141.252 118.429 141.252C117.544 141.252 116.825 141.591 116.271 142.268C115.724 142.945 115.451 143.941 115.451 145.256ZM118.097 139.719C118.898 139.719 119.569 139.888 120.109 140.227C120.422 140.422 120.776 140.764 121.174 141.252V135.969H122.863V150.364H121.281V148.909C120.871 149.553 120.386 150.019 119.826 150.305C119.266 150.592 118.625 150.735 117.902 150.735C116.737 150.735 115.728 150.246 114.875 149.27C114.022 148.287 113.595 146.981 113.595 145.354C113.595 143.83 113.983 142.512 114.758 141.399C115.539 140.279 116.652 139.719 118.097 139.719Z" fill="white" fill-opacity="0.75"/>
<path d="M41.2842 178.227C42.1956 178.227 42.915 178.044 43.4424 177.68C43.9762 177.315 44.2432 176.658 44.2432 175.707C44.2432 174.685 43.8721 173.988 43.1299 173.617C42.7327 173.422 42.2021 173.324 41.5381 173.324H36.792V178.227H41.2842ZM34.8486 171.654H41.4893C42.583 171.654 43.4847 171.814 44.1943 172.133C45.542 172.745 46.2158 173.874 46.2158 175.521C46.2158 176.381 46.0368 177.084 45.6787 177.631C45.3271 178.178 44.8324 178.617 44.1943 178.949C44.7542 179.177 45.1742 179.477 45.4541 179.848C45.7406 180.219 45.9001 180.821 45.9326 181.654L46.001 183.578C46.0205 184.125 46.0661 184.532 46.1377 184.799C46.2549 185.255 46.4632 185.548 46.7627 185.678V186H44.3799C44.3148 185.876 44.2627 185.717 44.2236 185.521C44.1846 185.326 44.152 184.949 44.126 184.389L44.0088 181.996C43.9632 181.059 43.6149 180.43 42.9639 180.111C42.5928 179.936 42.0101 179.848 41.2158 179.848H36.792V186H34.8486V171.654ZM52.9834 184.867C54.1488 184.867 54.9463 184.428 55.376 183.549C55.8122 182.663 56.0303 181.68 56.0303 180.6C56.0303 179.623 55.874 178.829 55.5615 178.217C55.0667 177.253 54.2139 176.771 53.0029 176.771C51.9287 176.771 51.1475 177.182 50.6592 178.002C50.1709 178.822 49.9268 179.812 49.9268 180.971C49.9268 182.084 50.1709 183.012 50.6592 183.754C51.1475 184.496 51.9222 184.867 52.9834 184.867ZM53.0518 175.238C54.3994 175.238 55.5387 175.688 56.4697 176.586C57.4007 177.484 57.8662 178.806 57.8662 180.551C57.8662 182.237 57.4561 183.63 56.6357 184.73C55.8154 185.831 54.5426 186.381 52.8174 186.381C51.3786 186.381 50.236 185.896 49.3896 184.926C48.5433 183.949 48.1201 182.641 48.1201 181C48.1201 179.242 48.5661 177.842 49.458 176.801C50.3499 175.759 51.5479 175.238 53.0518 175.238ZM59.9658 175.541H61.6357V177.025C62.1305 176.413 62.6546 175.974 63.208 175.707C63.7614 175.44 64.3766 175.307 65.0537 175.307C66.5381 175.307 67.5407 175.824 68.0615 176.859C68.348 177.426 68.4912 178.236 68.4912 179.291V186H66.7041V179.408C66.7041 178.77 66.6097 178.256 66.4209 177.865C66.1084 177.214 65.542 176.889 64.7217 176.889C64.305 176.889 63.9632 176.931 63.6963 177.016C63.2145 177.159 62.7913 177.445 62.4268 177.875C62.1338 178.22 61.9417 178.578 61.8506 178.949C61.766 179.314 61.7236 179.838 61.7236 180.521V186H59.9658V175.541ZM72.2119 180.893C72.2119 182.012 72.4495 182.95 72.9248 183.705C73.4001 184.46 74.1618 184.838 75.21 184.838C76.0238 184.838 76.6911 184.49 77.2119 183.793C77.7393 183.09 78.0029 182.084 78.0029 180.775C78.0029 179.454 77.7327 178.477 77.1924 177.846C76.652 177.208 75.9847 176.889 75.1904 176.889C74.305 176.889 73.5856 177.227 73.0322 177.904C72.4854 178.581 72.2119 179.577 72.2119 180.893ZM74.8584 175.355C75.6592 175.355 76.3298 175.525 76.8701 175.863C77.1826 176.059 77.5374 176.4 77.9346 176.889V171.605H79.624V186H78.042V184.545C77.6318 185.189 77.1468 185.655 76.5869 185.941C76.027 186.228 75.3857 186.371 74.6631 186.371C73.4977 186.371 72.4886 185.883 71.6357 184.906C70.7829 183.923 70.3564 182.618 70.3564 180.99C70.3564 179.467 70.7438 178.148 71.5186 177.035C72.2998 175.915 73.4131 175.355 74.8584 175.355ZM86.5869 175.307C87.3291 175.307 88.0485 175.482 88.7451 175.834C89.4417 176.179 89.9723 176.628 90.3369 177.182C90.6885 177.709 90.9229 178.324 91.04 179.027C91.1442 179.509 91.1963 180.277 91.1963 181.332H83.5303C83.5628 182.393 83.8135 183.246 84.2822 183.891C84.751 184.529 85.4769 184.848 86.46 184.848C87.3779 184.848 88.1104 184.545 88.6572 183.939C88.9697 183.588 89.1911 183.181 89.3213 182.719H91.0498C91.0042 183.103 90.8512 183.533 90.5908 184.008C90.3369 184.477 90.0505 184.861 89.7314 185.16C89.1976 185.681 88.5368 186.033 87.749 186.215C87.3258 186.319 86.8473 186.371 86.3135 186.371C85.0114 186.371 83.9079 185.899 83.0029 184.955C82.098 184.005 81.6455 182.676 81.6455 180.971C81.6455 179.291 82.1012 177.927 83.0127 176.879C83.9242 175.831 85.1156 175.307 86.5869 175.307ZM89.3896 179.936C89.318 179.174 89.152 178.565 88.8916 178.109C88.4098 177.263 87.6058 176.84 86.4795 176.84C85.6722 176.84 84.9951 177.133 84.4482 177.719C83.9014 178.298 83.6117 179.037 83.5791 179.936H89.3896ZM102.837 186.381C101.183 186.381 99.9821 185.928 99.2334 185.023C98.4912 184.112 98.1201 183.005 98.1201 181.703H99.9561C100.034 182.608 100.203 183.266 100.464 183.676C100.92 184.411 101.743 184.779 102.935 184.779C103.859 184.779 104.601 184.532 105.161 184.037C105.721 183.542 106.001 182.904 106.001 182.123C106.001 181.16 105.705 180.486 105.112 180.102C104.526 179.717 103.709 179.525 102.661 179.525C102.544 179.525 102.424 179.529 102.3 179.535C102.183 179.535 102.062 179.538 101.938 179.545V177.992C102.121 178.012 102.274 178.025 102.397 178.031C102.521 178.038 102.655 178.041 102.798 178.041C103.455 178.041 103.996 177.937 104.419 177.729C105.161 177.364 105.532 176.713 105.532 175.775C105.532 175.079 105.285 174.542 104.79 174.164C104.295 173.786 103.719 173.598 103.062 173.598C101.89 173.598 101.079 173.988 100.63 174.77C100.382 175.199 100.243 175.811 100.21 176.605H98.4717C98.4717 175.564 98.68 174.678 99.0967 173.949C99.8128 172.647 101.073 171.996 102.876 171.996C104.302 171.996 105.405 172.315 106.187 172.953C106.968 173.585 107.358 174.503 107.358 175.707C107.358 176.566 107.127 177.263 106.665 177.797C106.379 178.129 106.007 178.389 105.552 178.578C106.287 178.78 106.86 179.171 107.271 179.75C107.687 180.323 107.896 181.026 107.896 181.859C107.896 183.194 107.456 184.281 106.577 185.121C105.698 185.961 104.451 186.381 102.837 186.381Z" fill="white" fill-opacity="0.75"/>
<path d="M33 0H171.727V71.4546C171.727 76.9774 167.25 81.4546 161.727 81.4546H43C37.4772 81.4546 33 76.9774 33 71.4546V0Z" fill="url(#paint0_linear_24_123)"/>
<path d="M50.0703 23.2812V21.0078C51.125 20.9609 51.8633 20.8906 52.2852 20.7969C52.957 20.6484 53.5039 20.3516 53.9258 19.9062C54.2148 19.6016 54.4336 19.1953 54.582 18.6875C54.668 18.3828 54.7109 18.1562 54.7109 18.0078H57.4883V35H54.0664V23.2812H50.0703ZM65.7266 30.4531C65.8594 31.1797 66.1133 31.7422 66.4883 32.1406C66.8633 32.5312 67.4102 32.7266 68.1289 32.7266C68.957 32.7266 69.5859 32.4375 70.0156 31.8594C70.4531 31.2734 70.6719 30.5391 70.6719 29.6562C70.6719 28.7891 70.4688 28.0586 70.0625 27.4648C69.6562 26.8633 69.0234 26.5625 68.1641 26.5625C67.7578 26.5625 67.4062 26.6133 67.1094 26.7148C66.5859 26.9023 66.1914 27.25 65.9258 27.7578L62.9258 27.6172L64.1211 18.2305H73.4844V21.0664H66.5352L65.9258 24.7812C66.4414 24.4453 66.8438 24.2227 67.1328 24.1133C67.6172 23.9336 68.207 23.8438 68.9023 23.8438C70.3086 23.8438 71.5352 24.3164 72.582 25.2617C73.6289 26.207 74.1523 27.582 74.1523 29.3867C74.1523 30.957 73.6484 32.3594 72.6406 33.5938C71.6328 34.8281 70.125 35.4453 68.1172 35.4453C66.5 35.4453 65.1719 35.0117 64.1328 34.1445C63.0938 33.2773 62.5156 32.0469 62.3984 30.4531H65.7266ZM102.395 26.7266H109.121V29.8906H102.395V26.7266ZM131.539 23.2812V21.0078C132.594 20.9609 133.332 20.8906 133.754 20.7969C134.426 20.6484 134.973 20.3516 135.395 19.9062C135.684 19.6016 135.902 19.1953 136.051 18.6875C136.137 18.3828 136.18 18.1562 136.18 18.0078H138.957V35H135.535V23.2812H131.539ZM147.336 29.6211C147.336 30.5352 147.582 31.2812 148.074 31.8594C148.566 32.4375 149.191 32.7266 149.949 32.7266C150.691 32.7266 151.273 32.4492 151.695 31.8945C152.125 31.332 152.34 30.6055 152.34 29.7148C152.34 28.7227 152.098 27.9648 151.613 27.4414C151.129 26.9102 150.535 26.6445 149.832 26.6445C149.262 26.6445 148.758 26.8164 148.32 27.1602C147.664 27.668 147.336 28.4883 147.336 29.6211ZM152.035 22.2852C152.035 22.0117 151.93 21.7109 151.719 21.3828C151.359 20.8516 150.816 20.5859 150.09 20.5859C149.004 20.5859 148.23 21.1953 147.77 22.4141C147.52 23.0859 147.348 24.0781 147.254 25.3906C147.668 24.8984 148.148 24.5391 148.695 24.3125C149.242 24.0859 149.867 23.9727 150.57 23.9727C152.078 23.9727 153.312 24.4844 154.273 25.5078C155.242 26.5312 155.727 27.8398 155.727 29.4336C155.727 31.0195 155.254 32.418 154.309 33.6289C153.363 34.8398 151.895 35.4453 149.902 35.4453C147.762 35.4453 146.184 34.5508 145.168 32.7617C144.379 31.3633 143.984 29.5586 143.984 27.3477C143.984 26.0508 144.039 24.9961 144.148 24.1836C144.344 22.7383 144.723 21.5352 145.285 20.5742C145.77 19.7539 146.402 19.0938 147.184 18.5938C147.973 18.0938 148.914 17.8438 150.008 17.8438C151.586 17.8438 152.844 18.25 153.781 19.0625C154.719 19.8672 155.246 20.9414 155.363 22.2852H152.035ZM85.7422 56.4492V56.8477C85.7734 58.1836 85.918 59.125 86.1758 59.6719C86.4414 60.2109 87.0039 60.4805 87.8633 60.4805C88.7148 60.4805 89.2773 60.1836 89.5508 59.5898C89.7148 59.2383 89.7969 58.6445 89.7969 57.8086V45.7266H93.4062V57.75C93.4062 59.2188 93.1523 60.3828 92.6445 61.2422C91.7852 62.6953 90.2344 63.4219 87.9922 63.4219C85.75 63.4219 84.2461 62.8359 83.4805 61.6641C82.7148 60.4844 82.332 58.8789 82.332 56.8477V56.4492H85.7422ZM100.051 50.2266V57.9258C100.051 58.6523 100.137 59.1992 100.309 59.5664C100.613 60.2148 101.211 60.5391 102.102 60.5391C103.242 60.5391 104.023 60.0781 104.445 59.1562C104.664 58.6562 104.773 57.9961 104.773 57.1758V50.2266H108.16V63H104.914V61.1953C104.883 61.2344 104.805 61.3516 104.68 61.5469C104.555 61.7422 104.406 61.9141 104.234 62.0625C103.711 62.5312 103.203 62.8516 102.711 63.0234C102.227 63.1953 101.656 63.2812 101 63.2812C99.1094 63.2812 97.8359 62.6016 97.1797 61.2422C96.8125 60.4922 96.6289 59.3867 96.6289 57.9258V50.2266H100.051ZM114.805 63H111.465V45.7266H114.805V63ZM121.508 48.7031H118.121V45.6211H121.508V48.7031ZM118.121 50.2266H121.508V63H118.121V50.2266Z" fill="white"/>
<defs>
<linearGradient id="paint0_linear_24_123" x1="33" y1="0" x2="283.727" y2="160.364" gradientUnits="userSpaceOnUse">
<stop stop-color="#FF0000"/>
<stop offset="1" stop-color="#FF0000" stop-opacity="0"/>
</linearGradient>
</defs>
</svg>
