<svg width="350" height="259" viewBox="0 0 350 259" fill="none" xmlns="http://www.w3.org/2000/svg">
<path d="M0 25C0 11.1929 11.1929 0 25 0H345C347.761 0 350 2.23858 350 5V233.364C350 247.171 338.807 258.364 325 258.364H4.99999C2.23857 258.364 0 256.125 0 253.364V25Z" fill="#333333"/>
<mask id="path-2-inside-1_24_136" fill="white">
<path d="M0 219H350V233.455C350 247.262 338.807 258.455 325 258.455H4.99999C2.23857 258.455 0 256.216 0 253.455V219Z"/>
</mask>
<path d="M0 219H350V233.455C350 247.262 338.807 258.455 325 258.455H4.99999C2.23857 258.455 0 256.216 0 253.455V219Z" fill="#767676"/>
<path d="M0 218H350V220H0V218ZM350 258.455H0H350ZM0 258.455V219V258.455ZM350 219V258.455V219Z" fill="#B5B5B5" mask="url(#path-2-inside-1_24_136)"/>
<path d="M46.5322 110.663C46.2588 109.483 45.5908 108.659 44.5283 108.19C43.9346 107.932 43.2744 107.803 42.5479 107.803C41.1572 107.803 40.0127 108.331 39.1143 109.385C38.2236 110.432 37.7783 112.01 37.7783 114.12C37.7783 116.245 38.2627 117.749 39.2314 118.631C40.2002 119.514 41.3018 119.956 42.5361 119.956C43.7471 119.956 44.7393 119.608 45.5127 118.913C46.2861 118.21 46.7627 117.292 46.9424 116.159H42.9463V113.276H50.1416V122.545H47.751L47.3877 120.389C46.6924 121.21 46.0674 121.788 45.5127 122.124C44.5596 122.71 43.3877 123.003 41.9971 123.003C39.708 123.003 37.833 122.21 36.3721 120.624C34.8486 119.03 34.0869 116.85 34.0869 114.085C34.0869 111.288 34.8564 109.045 36.3955 107.358C37.9346 105.67 39.9697 104.827 42.501 104.827C44.6963 104.827 46.458 105.385 47.7861 106.503C49.1221 107.612 49.8877 108.999 50.083 110.663H46.5322ZM58.3682 112.186C57.5947 112.186 56.9932 112.428 56.5635 112.913C56.1416 113.397 55.876 114.053 55.7666 114.881H60.958C60.9033 113.999 60.6338 113.331 60.1494 112.878C59.6729 112.417 59.0791 112.186 58.3682 112.186ZM58.3682 109.432C59.4307 109.432 60.3877 109.631 61.2393 110.03C62.0908 110.428 62.7939 111.057 63.3486 111.917C63.8486 112.674 64.1729 113.553 64.3213 114.553C64.4072 115.139 64.4424 115.983 64.4268 117.085H55.6846C55.7314 118.366 56.1338 119.264 56.8916 119.78C57.3525 120.1 57.9072 120.26 58.5557 120.26C59.2432 120.26 59.8018 120.065 60.2314 119.674C60.4658 119.463 60.6729 119.17 60.8525 118.795H64.2627C64.1768 119.553 63.7822 120.323 63.0791 121.104C61.9854 122.346 60.4541 122.967 58.4854 122.967C56.8604 122.967 55.4268 122.444 54.1846 121.397C52.9424 120.35 52.3213 118.647 52.3213 116.288C52.3213 114.077 52.8799 112.381 53.9971 111.202C55.1221 110.022 56.5791 109.432 58.3682 109.432ZM73.7666 109.467C75.0869 109.467 76.165 109.815 77.001 110.51C77.8447 111.198 78.2666 112.342 78.2666 113.944V122.545H74.8447V114.776C74.8447 114.104 74.7549 113.588 74.5752 113.229C74.2471 112.573 73.6221 112.245 72.7002 112.245C71.5674 112.245 70.79 112.725 70.3682 113.686C70.1494 114.194 70.04 114.842 70.04 115.631V122.545H66.7119V109.795H69.9346V111.659C70.3643 111.003 70.7705 110.53 71.1533 110.241C71.8408 109.725 72.7119 109.467 73.7666 109.467ZM86.0713 109.467C86.8447 109.467 87.5322 109.639 88.1338 109.983C88.7354 110.319 89.2236 110.788 89.5986 111.389V105.295H92.9854V122.545H89.7393V120.776C89.2627 121.534 88.7197 122.085 88.1104 122.428C87.501 122.772 86.7432 122.944 85.8369 122.944C84.3447 122.944 83.0869 122.342 82.0635 121.139C81.0479 119.928 80.54 118.378 80.54 116.487C80.54 114.307 81.04 112.592 82.04 111.342C83.0479 110.092 84.3916 109.467 86.0713 109.467ZM86.7979 120.131C87.7432 120.131 88.4619 119.78 88.9541 119.077C89.4463 118.374 89.6924 117.463 89.6924 116.346C89.6924 114.784 89.2979 113.667 88.5088 112.995C88.0244 112.588 87.4619 112.385 86.8213 112.385C85.8447 112.385 85.126 112.756 84.665 113.499C84.2119 114.233 83.9854 115.147 83.9854 116.241C83.9854 117.42 84.2158 118.366 84.6768 119.077C85.1455 119.78 85.8525 120.131 86.7979 120.131ZM102.97 109.467C103.032 109.467 103.083 109.471 103.122 109.479C103.169 109.479 103.267 109.483 103.415 109.491V112.913C103.204 112.889 103.017 112.874 102.853 112.866C102.688 112.858 102.556 112.854 102.454 112.854C101.11 112.854 100.208 113.292 99.7471 114.167C99.4893 114.659 99.3604 115.417 99.3604 116.44V122.545H95.9971V109.772H99.1846V111.999C99.7002 111.147 100.149 110.565 100.532 110.253C101.157 109.729 101.97 109.467 102.97 109.467ZM108.817 108.249H105.431V105.167H108.817V108.249ZM105.431 109.772H108.817V122.545H105.431V109.772ZM119.142 109.467C120.462 109.467 121.54 109.815 122.376 110.51C123.22 111.198 123.642 112.342 123.642 113.944V122.545H120.22V114.776C120.22 114.104 120.13 113.588 119.95 113.229C119.622 112.573 118.997 112.245 118.075 112.245C116.942 112.245 116.165 112.725 115.743 113.686C115.524 114.194 115.415 114.842 115.415 115.631V122.545H112.087V109.795H115.31V111.659C115.739 111.003 116.146 110.53 116.528 110.241C117.216 109.725 118.087 109.467 119.142 109.467ZM132.22 119.803C133.001 119.803 133.661 119.51 134.2 118.924C134.739 118.331 135.009 117.389 135.009 116.1C135.009 114.889 134.751 113.967 134.235 113.335C133.728 112.702 133.044 112.385 132.185 112.385C131.013 112.385 130.204 112.936 129.759 114.038C129.524 114.624 129.407 115.346 129.407 116.206C129.407 116.948 129.532 117.608 129.782 118.186C130.235 119.264 131.048 119.803 132.22 119.803ZM131.388 109.467C132.028 109.467 132.587 109.565 133.063 109.76C133.876 110.096 134.532 110.713 135.032 111.612V109.772H138.278V121.889C138.278 123.538 138.001 124.78 137.446 125.616C136.493 127.053 134.665 127.772 131.962 127.772C130.329 127.772 128.997 127.452 127.966 126.811C126.935 126.17 126.364 125.213 126.255 123.94H129.888C129.981 124.331 130.134 124.612 130.345 124.784C130.704 125.088 131.31 125.241 132.161 125.241C133.364 125.241 134.169 124.838 134.575 124.034C134.841 123.518 134.974 122.651 134.974 121.432V120.612C134.653 121.159 134.31 121.569 133.942 121.842C133.278 122.35 132.415 122.604 131.353 122.604C129.712 122.604 128.399 122.03 127.415 120.881C126.438 119.725 125.95 118.163 125.95 116.194C125.95 114.295 126.423 112.702 127.368 111.413C128.313 110.116 129.653 109.467 131.388 109.467ZM146.446 112.186C145.673 112.186 145.071 112.428 144.642 112.913C144.22 113.397 143.954 114.053 143.845 114.881H149.036C148.981 113.999 148.712 113.331 148.228 112.878C147.751 112.417 147.157 112.186 146.446 112.186ZM146.446 109.432C147.509 109.432 148.466 109.631 149.317 110.03C150.169 110.428 150.872 111.057 151.427 111.917C151.927 112.674 152.251 113.553 152.399 114.553C152.485 115.139 152.521 115.983 152.505 117.085H143.763C143.81 118.366 144.212 119.264 144.97 119.78C145.431 120.1 145.985 120.26 146.634 120.26C147.321 120.26 147.88 120.065 148.31 119.674C148.544 119.463 148.751 119.17 148.931 118.795H152.341C152.255 119.553 151.86 120.323 151.157 121.104C150.063 122.346 148.532 122.967 146.563 122.967C144.938 122.967 143.505 122.444 142.263 121.397C141.021 120.35 140.399 118.647 140.399 116.288C140.399 114.077 140.958 112.381 142.075 111.202C143.2 110.022 144.657 109.432 146.446 109.432ZM161.845 109.467C163.165 109.467 164.243 109.815 165.079 110.51C165.923 111.198 166.345 112.342 166.345 113.944V122.545H162.923V114.776C162.923 114.104 162.833 113.588 162.653 113.229C162.325 112.573 161.7 112.245 160.778 112.245C159.646 112.245 158.868 112.725 158.446 113.686C158.228 114.194 158.118 114.842 158.118 115.631V122.545H154.79V109.795H158.013V111.659C158.442 111.003 158.849 110.53 159.231 110.241C159.919 109.725 160.79 109.467 161.845 109.467Z" fill="white"/>
<path d="M33.3416 136.018H35.6365L42.8826 147.639V136.018H44.7283V150.364H42.5505L35.197 138.752V150.364H33.3416V136.018ZM51.9158 139.67C52.658 139.67 53.3774 139.846 54.074 140.198C54.7706 140.543 55.3012 140.992 55.6658 141.545C56.0173 142.073 56.2517 142.688 56.3689 143.391C56.4731 143.873 56.5251 144.641 56.5251 145.696H48.8591C48.8917 146.757 49.1423 147.61 49.6111 148.254C50.0798 148.892 50.8057 149.211 51.7888 149.211C52.7068 149.211 53.4392 148.909 53.9861 148.303C54.2986 147.952 54.5199 147.545 54.6501 147.082H56.3787C56.3331 147.467 56.1801 147.896 55.9197 148.371C55.6658 148.84 55.3793 149.224 55.0603 149.524C54.5264 150.045 53.8656 150.396 53.0779 150.578C52.6547 150.683 52.1762 150.735 51.6423 150.735C50.3403 150.735 49.2367 150.263 48.3318 149.319C47.4268 148.368 46.9744 147.04 46.9744 145.334C46.9744 143.655 47.4301 142.291 48.3416 141.243C49.253 140.194 50.4444 139.67 51.9158 139.67ZM54.7185 144.299C54.6469 143.537 54.4809 142.929 54.2205 142.473C53.7387 141.627 52.9347 141.203 51.8083 141.203C51.0011 141.203 50.324 141.496 49.7771 142.082C49.2302 142.662 48.9405 143.401 48.908 144.299H54.7185ZM59.8064 145.256C59.8064 146.376 60.044 147.314 60.5193 148.069C60.9945 148.824 61.7563 149.202 62.8044 149.202C63.6182 149.202 64.2856 148.853 64.8064 148.157C65.3337 147.453 65.5974 146.448 65.5974 145.139C65.5974 143.817 65.3272 142.841 64.7869 142.209C64.2465 141.571 63.5792 141.252 62.7849 141.252C61.8995 141.252 61.1801 141.591 60.6267 142.268C60.0798 142.945 59.8064 143.941 59.8064 145.256ZM62.4529 139.719C63.2537 139.719 63.9242 139.888 64.4646 140.227C64.7771 140.422 65.1319 140.764 65.5291 141.252V135.969H67.2185V150.364H65.6365V148.909C65.2263 149.553 64.7413 150.019 64.1814 150.305C63.6215 150.592 62.9802 150.735 62.2576 150.735C61.0922 150.735 60.0831 150.246 59.2302 149.27C58.3774 148.287 57.9509 146.981 57.9509 145.354C57.9509 143.83 58.3383 142.512 59.113 141.399C59.8943 140.279 61.0076 139.719 62.4529 139.719ZM74.1814 139.67C74.9236 139.67 75.643 139.846 76.3396 140.198C77.0362 140.543 77.5668 140.992 77.9314 141.545C78.283 142.073 78.5173 142.688 78.6345 143.391C78.7387 143.873 78.7908 144.641 78.7908 145.696H71.1248C71.1573 146.757 71.408 147.61 71.8767 148.254C72.3455 148.892 73.0714 149.211 74.0544 149.211C74.9724 149.211 75.7048 148.909 76.2517 148.303C76.5642 147.952 76.7856 147.545 76.9158 147.082H78.6443C78.5987 147.467 78.4457 147.896 78.1853 148.371C77.9314 148.84 77.6449 149.224 77.3259 149.524C76.7921 150.045 76.1313 150.396 75.3435 150.578C74.9203 150.683 74.4418 150.735 73.908 150.735C72.6059 150.735 71.5024 150.263 70.5974 149.319C69.6925 148.368 69.24 147.04 69.24 145.334C69.24 143.655 69.6957 142.291 70.6072 141.243C71.5186 140.194 72.71 139.67 74.1814 139.67ZM76.9841 144.299C76.9125 143.537 76.7465 142.929 76.4861 142.473C76.0043 141.627 75.2003 141.203 74.074 141.203C73.2667 141.203 72.5896 141.496 72.0427 142.082C71.4958 142.662 71.2061 143.401 71.1736 144.299H76.9841ZM81.0076 139.905H82.6775V141.711C82.8142 141.36 83.1495 140.933 83.6833 140.432C84.2172 139.924 84.8324 139.67 85.5291 139.67C85.5616 139.67 85.6169 139.674 85.6951 139.68C85.7732 139.687 85.9067 139.7 86.0955 139.719V141.575C85.9913 141.555 85.8936 141.542 85.8025 141.536C85.7179 141.529 85.6235 141.526 85.5193 141.526C84.6339 141.526 83.9535 141.812 83.4783 142.385C83.003 142.952 82.7654 143.606 82.7654 144.348V150.364H81.0076V139.905ZM87.6677 136.018H89.4255V150.364H87.6677V136.018ZM93.4197 147.58C93.4197 148.088 93.6052 148.489 93.9763 148.782C94.3474 149.075 94.7869 149.221 95.2947 149.221C95.9132 149.221 96.5121 149.078 97.0916 148.791C98.0681 148.316 98.5564 147.538 98.5564 146.457V145.041C98.3416 145.178 98.0649 145.292 97.7263 145.383C97.3878 145.474 97.0557 145.539 96.7302 145.578L95.6658 145.715C95.0278 145.8 94.5492 145.933 94.2302 146.116C93.6899 146.422 93.4197 146.91 93.4197 147.58ZM97.6775 144.026C98.0811 143.974 98.3513 143.804 98.488 143.518C98.5662 143.362 98.6052 143.137 98.6052 142.844C98.6052 142.245 98.3904 141.812 97.9607 141.545C97.5375 141.272 96.9288 141.135 96.1345 141.135C95.2166 141.135 94.5655 141.383 94.1814 141.877C93.9666 142.151 93.8266 142.558 93.7615 143.098H92.1208C92.1534 141.809 92.5701 140.914 93.3708 140.412C94.1781 139.905 95.1124 139.651 96.1736 139.651C97.4041 139.651 98.4034 139.885 99.1716 140.354C99.9333 140.823 100.314 141.552 100.314 142.541V148.567C100.314 148.749 100.35 148.896 100.422 149.006C100.5 149.117 100.659 149.172 100.9 149.172C100.978 149.172 101.066 149.169 101.164 149.162C101.261 149.149 101.366 149.133 101.476 149.114V150.412C101.203 150.491 100.995 150.539 100.851 150.559C100.708 150.578 100.513 150.588 100.265 150.588C99.6599 150.588 99.2205 150.373 98.947 149.944C98.8038 149.716 98.7029 149.394 98.6443 148.977C98.2862 149.446 97.7719 149.853 97.1013 150.198C96.4307 150.543 95.6918 150.715 94.8845 150.715C93.9145 150.715 93.1202 150.422 92.5017 149.836C91.8897 149.244 91.5837 148.505 91.5837 147.62C91.5837 146.649 91.8865 145.898 92.4919 145.364C93.0974 144.83 93.8917 144.501 94.8748 144.377L97.6775 144.026ZM103.205 139.905H104.875V141.389C105.37 140.777 105.894 140.338 106.447 140.071C107 139.804 107.616 139.67 108.293 139.67C109.777 139.67 110.78 140.188 111.301 141.223C111.587 141.789 111.73 142.6 111.73 143.655V150.364H109.943V143.772C109.943 143.134 109.849 142.62 109.66 142.229C109.347 141.578 108.781 141.252 107.961 141.252C107.544 141.252 107.202 141.295 106.935 141.379C106.454 141.523 106.03 141.809 105.666 142.239C105.373 142.584 105.181 142.942 105.09 143.313C105.005 143.677 104.963 144.202 104.963 144.885V150.364H103.205V139.905ZM115.451 145.256C115.451 146.376 115.689 147.314 116.164 148.069C116.639 148.824 117.401 149.202 118.449 149.202C119.263 149.202 119.93 148.853 120.451 148.157C120.978 147.453 121.242 146.448 121.242 145.139C121.242 143.817 120.972 142.841 120.431 142.209C119.891 141.571 119.224 141.252 118.429 141.252C117.544 141.252 116.825 141.591 116.271 142.268C115.724 142.945 115.451 143.941 115.451 145.256ZM118.097 139.719C118.898 139.719 119.569 139.888 120.109 140.227C120.422 140.422 120.776 140.764 121.174 141.252V135.969H122.863V150.364H121.281V148.909C120.871 149.553 120.386 150.019 119.826 150.305C119.266 150.592 118.625 150.735 117.902 150.735C116.737 150.735 115.728 150.246 114.875 149.27C114.022 148.287 113.595 146.981 113.595 145.354C113.595 143.83 113.983 142.512 114.758 141.399C115.539 140.279 116.652 139.719 118.097 139.719Z" fill="white" fill-opacity="0.75"/>
<path d="M41.2842 178.227C42.1956 178.227 42.915 178.044 43.4424 177.68C43.9762 177.315 44.2432 176.658 44.2432 175.707C44.2432 174.685 43.8721 173.988 43.1299 173.617C42.7327 173.422 42.2021 173.324 41.5381 173.324H36.792V178.227H41.2842ZM34.8486 171.654H41.4893C42.583 171.654 43.4847 171.814 44.1943 172.133C45.542 172.745 46.2158 173.874 46.2158 175.521C46.2158 176.381 46.0368 177.084 45.6787 177.631C45.3271 178.178 44.8324 178.617 44.1943 178.949C44.7542 179.177 45.1742 179.477 45.4541 179.848C45.7406 180.219 45.9001 180.821 45.9326 181.654L46.001 183.578C46.0205 184.125 46.0661 184.532 46.1377 184.799C46.2549 185.255 46.4632 185.548 46.7627 185.678V186H44.3799C44.3148 185.876 44.2627 185.717 44.2236 185.521C44.1846 185.326 44.152 184.949 44.126 184.389L44.0088 181.996C43.9632 181.059 43.6149 180.43 42.9639 180.111C42.5928 179.936 42.0101 179.848 41.2158 179.848H36.792V186H34.8486V171.654ZM52.9834 184.867C54.1488 184.867 54.9463 184.428 55.376 183.549C55.8122 182.663 56.0303 181.68 56.0303 180.6C56.0303 179.623 55.874 178.829 55.5615 178.217C55.0667 177.253 54.2139 176.771 53.0029 176.771C51.9287 176.771 51.1475 177.182 50.6592 178.002C50.1709 178.822 49.9268 179.812 49.9268 180.971C49.9268 182.084 50.1709 183.012 50.6592 183.754C51.1475 184.496 51.9222 184.867 52.9834 184.867ZM53.0518 175.238C54.3994 175.238 55.5387 175.688 56.4697 176.586C57.4007 177.484 57.8662 178.806 57.8662 180.551C57.8662 182.237 57.4561 183.63 56.6357 184.73C55.8154 185.831 54.5426 186.381 52.8174 186.381C51.3786 186.381 50.236 185.896 49.3896 184.926C48.5433 183.949 48.1201 182.641 48.1201 181C48.1201 179.242 48.5661 177.842 49.458 176.801C50.3499 175.759 51.5479 175.238 53.0518 175.238ZM59.9658 175.541H61.6357V177.025C62.1305 176.413 62.6546 175.974 63.208 175.707C63.7614 175.44 64.3766 175.307 65.0537 175.307C66.5381 175.307 67.5407 175.824 68.0615 176.859C68.348 177.426 68.4912 178.236 68.4912 179.291V186H66.7041V179.408C66.7041 178.77 66.6097 178.256 66.4209 177.865C66.1084 177.214 65.542 176.889 64.7217 176.889C64.305 176.889 63.9632 176.931 63.6963 177.016C63.2145 177.159 62.7913 177.445 62.4268 177.875C62.1338 178.22 61.9417 178.578 61.8506 178.949C61.766 179.314 61.7236 179.838 61.7236 180.521V186H59.9658V175.541ZM72.2119 180.893C72.2119 182.012 72.4495 182.95 72.9248 183.705C73.4001 184.46 74.1618 184.838 75.21 184.838C76.0238 184.838 76.6911 184.49 77.2119 183.793C77.7393 183.09 78.0029 182.084 78.0029 180.775C78.0029 179.454 77.7327 178.477 77.1924 177.846C76.652 177.208 75.9847 176.889 75.1904 176.889C74.305 176.889 73.5856 177.227 73.0322 177.904C72.4854 178.581 72.2119 179.577 72.2119 180.893ZM74.8584 175.355C75.6592 175.355 76.3298 175.525 76.8701 175.863C77.1826 176.059 77.5374 176.4 77.9346 176.889V171.605H79.624V186H78.042V184.545C77.6318 185.189 77.1468 185.655 76.5869 185.941C76.027 186.228 75.3857 186.371 74.6631 186.371C73.4977 186.371 72.4886 185.883 71.6357 184.906C70.7829 183.923 70.3564 182.618 70.3564 180.99C70.3564 179.467 70.7438 178.148 71.5186 177.035C72.2998 175.915 73.4131 175.355 74.8584 175.355ZM86.5869 175.307C87.3291 175.307 88.0485 175.482 88.7451 175.834C89.4417 176.179 89.9723 176.628 90.3369 177.182C90.6885 177.709 90.9229 178.324 91.04 179.027C91.1442 179.509 91.1963 180.277 91.1963 181.332H83.5303C83.5628 182.393 83.8135 183.246 84.2822 183.891C84.751 184.529 85.4769 184.848 86.46 184.848C87.3779 184.848 88.1104 184.545 88.6572 183.939C88.9697 183.588 89.1911 183.181 89.3213 182.719H91.0498C91.0042 183.103 90.8512 183.533 90.5908 184.008C90.3369 184.477 90.0505 184.861 89.7314 185.16C89.1976 185.681 88.5368 186.033 87.749 186.215C87.3258 186.319 86.8473 186.371 86.3135 186.371C85.0114 186.371 83.9079 185.899 83.0029 184.955C82.098 184.005 81.6455 182.676 81.6455 180.971C81.6455 179.291 82.1012 177.927 83.0127 176.879C83.9242 175.831 85.1156 175.307 86.5869 175.307ZM89.3896 179.936C89.318 179.174 89.152 178.565 88.8916 178.109C88.4098 177.263 87.6058 176.84 86.4795 176.84C85.6722 176.84 84.9951 177.133 84.4482 177.719C83.9014 178.298 83.6117 179.037 83.5791 179.936H89.3896ZM104.253 181.049V174.711L99.7705 181.049H104.253ZM104.282 186V182.582H98.1494V180.863L104.556 171.977H106.04V181.049H108.101V182.582H106.04V186H104.282Z" fill="white" fill-opacity="0.75"/>
<path d="M32 0H170.727V71.4546C170.727 76.9774 166.25 81.4546 160.727 81.4546H42C36.4772 81.4546 32 76.9774 32 71.4546V0Z" fill="url(#paint0_linear_24_136)"/>
<path d="M49.0703 23.2812V21.0078C50.125 20.9609 50.8633 20.8906 51.2852 20.7969C51.957 20.6484 52.5039 20.3516 52.9258 19.9062C53.2148 19.6016 53.4336 19.1953 53.582 18.6875C53.668 18.3828 53.7109 18.1562 53.7109 18.0078H56.4883V35H53.0664V23.2812H49.0703ZM61.5156 35C61.5469 33.7812 61.8086 32.668 62.3008 31.6602C62.7773 30.5273 63.9023 29.3281 65.6758 28.0625C67.2148 26.9609 68.2109 26.1719 68.6641 25.6953C69.3594 24.9531 69.707 24.1406 69.707 23.2578C69.707 22.5391 69.5078 21.9414 69.1094 21.4648C68.7109 20.9883 68.1406 20.75 67.3984 20.75C66.3828 20.75 65.6914 21.1289 65.3242 21.8867C65.1133 22.3242 64.9883 23.0195 64.9492 23.9727H61.7031C61.7578 22.5273 62.0195 21.3594 62.4883 20.4688C63.3789 18.7734 64.9609 17.9258 67.2344 17.9258C69.0312 17.9258 70.4609 18.4258 71.5234 19.4258C72.5859 20.418 73.1172 21.7344 73.1172 23.375C73.1172 24.6328 72.7422 25.75 71.9922 26.7266C71.5 27.375 70.6914 28.0977 69.5664 28.8945L68.2305 29.8438C67.3945 30.4375 66.8203 30.8672 66.5078 31.1328C66.2031 31.3984 65.9453 31.707 65.7344 32.0586H73.1523V35H61.5156ZM101.395 26.7266H108.121V29.8906H101.395V26.7266ZM130.539 23.2812V21.0078C131.594 20.9609 132.332 20.8906 132.754 20.7969C133.426 20.6484 133.973 20.3516 134.395 19.9062C134.684 19.6016 134.902 19.1953 135.051 18.6875C135.137 18.3828 135.18 18.1562 135.18 18.0078H137.957V35H134.535V23.2812H130.539ZM146.148 29.7852C146.148 30.4648 146.258 31.0273 146.477 31.4727C146.883 32.293 147.621 32.7031 148.691 32.7031C149.348 32.7031 149.918 32.4805 150.402 32.0352C150.895 31.582 151.141 30.9336 151.141 30.0898C151.141 28.9727 150.688 28.2266 149.781 27.8516C149.266 27.6406 148.453 27.5352 147.344 27.5352V25.1445C148.43 25.1289 149.188 25.0234 149.617 24.8281C150.359 24.5 150.73 23.8359 150.73 22.8359C150.73 22.1875 150.539 21.6602 150.156 21.2539C149.781 20.8477 149.25 20.6445 148.562 20.6445C147.773 20.6445 147.191 20.8945 146.816 21.3945C146.449 21.8945 146.273 22.5625 146.289 23.3984H143.172C143.203 22.5547 143.348 21.7539 143.605 20.9961C143.879 20.332 144.309 19.7188 144.895 19.1562C145.332 18.7578 145.852 18.4531 146.453 18.2422C147.055 18.0312 147.793 17.9258 148.668 17.9258C150.293 17.9258 151.602 18.3477 152.594 19.1914C153.594 20.0273 154.094 21.1523 154.094 22.5664C154.094 23.5664 153.797 24.4102 153.203 25.0977C152.828 25.5273 152.438 25.8203 152.031 25.9766C152.336 25.9766 152.773 26.2383 153.344 26.7617C154.195 27.5508 154.621 28.6289 154.621 29.9961C154.621 31.4336 154.121 32.6992 153.121 33.793C152.129 34.8789 150.656 35.4219 148.703 35.4219C146.297 35.4219 144.625 34.6367 143.688 33.0664C143.195 32.2305 142.922 31.1367 142.867 29.7852H146.148ZM84.707 56.4727H89.0898L86.9336 49.6758L84.707 56.4727ZM84.9297 45.7266H89.0078L95.125 63H91.2109L90.0977 59.4492H83.7344L82.5391 63H78.7656L84.9297 45.7266ZM100.387 50.2266V57.9258C100.387 58.6523 100.473 59.1992 100.645 59.5664C100.949 60.2148 101.547 60.5391 102.438 60.5391C103.578 60.5391 104.359 60.0781 104.781 59.1562C105 58.6562 105.109 57.9961 105.109 57.1758V50.2266H108.496V63H105.25V61.1953C105.219 61.2344 105.141 61.3516 105.016 61.5469C104.891 61.7422 104.742 61.9141 104.57 62.0625C104.047 62.5312 103.539 62.8516 103.047 63.0234C102.562 63.1953 101.992 63.2812 101.336 63.2812C99.4453 63.2812 98.1719 62.6016 97.5156 61.2422C97.1484 60.4922 96.9648 59.3867 96.9648 57.9258V50.2266H100.387ZM117.215 60.2578C117.996 60.2578 118.656 59.9648 119.195 59.3789C119.734 58.7852 120.004 57.8438 120.004 56.5547C120.004 55.3438 119.746 54.4219 119.23 53.7891C118.723 53.1562 118.039 52.8398 117.18 52.8398C116.008 52.8398 115.199 53.3906 114.754 54.4922C114.52 55.0781 114.402 55.8008 114.402 56.6602C114.402 57.4023 114.527 58.0625 114.777 58.6406C115.23 59.7188 116.043 60.2578 117.215 60.2578ZM116.383 49.9219C117.023 49.9219 117.582 50.0195 118.059 50.2148C118.871 50.5508 119.527 51.168 120.027 52.0664V50.2266H123.273V62.3438C123.273 63.9922 122.996 65.2344 122.441 66.0703C121.488 67.5078 119.66 68.2266 116.957 68.2266C115.324 68.2266 113.992 67.9062 112.961 67.2656C111.93 66.625 111.359 65.668 111.25 64.3945H114.883C114.977 64.7852 115.129 65.0664 115.34 65.2383C115.699 65.543 116.305 65.6953 117.156 65.6953C118.359 65.6953 119.164 65.293 119.57 64.4883C119.836 63.9727 119.969 63.1055 119.969 61.8867V61.0664C119.648 61.6133 119.305 62.0234 118.938 62.2969C118.273 62.8047 117.41 63.0586 116.348 63.0586C114.707 63.0586 113.395 62.4844 112.41 61.3359C111.434 60.1797 110.945 58.6172 110.945 56.6484C110.945 54.75 111.418 53.1562 112.363 51.8672C113.309 50.5703 114.648 49.9219 116.383 49.9219Z" fill="white"/>
<defs>
<linearGradient id="paint0_linear_24_136" x1="32" y1="0" x2="282.727" y2="160.364" gradientUnits="userSpaceOnUse">
<stop stop-color="#FF0000"/>
<stop offset="1" stop-color="#FF0000" stop-opacity="0"/>
</linearGradient>
</defs>
</svg>
