<svg width="350" height="259" viewBox="0 0 350 259" fill="none" xmlns="http://www.w3.org/2000/svg">
<path d="M0 15C0 6.71573 6.71573 0 15 0H335C343.284 0 350 6.71573 350 15V234C350 242.284 343.284 249 335 249H15C6.71574 249 0 242.284 0 234V15Z" fill="#333333"/>
<mask id="path-2-inside-1_24_84" fill="white">
<path d="M0 218.909H350V253.364C350 256.125 347.761 258.364 345 258.364H4.99999C2.23857 258.364 0 256.125 0 253.364V218.909Z"/>
</mask>
<path d="M0 218.909H350V253.364C350 256.125 347.761 258.364 345 258.364H4.99999C2.23857 258.364 0 256.125 0 253.364V218.909Z" fill="#767676"/>
<path d="M0 217.909H350V219.909H0V217.909ZM350 258.364H0H350ZM0 258.364V218.909V258.364ZM350 218.909V258.364V218.909Z" fill="#B5B5B5" mask="url(#path-2-inside-1_24_84)"/>
<path d="M38.423 108.272V112.081H42.6652C43.423 112.081 44.0363 111.94 44.505 111.659C44.9816 111.37 45.2198 110.862 45.2198 110.135C45.2198 109.331 44.9073 108.799 44.2823 108.542C43.7433 108.362 43.0558 108.272 42.2198 108.272H38.423ZM38.423 114.94V119.545H42.6652C43.423 119.545 44.0128 119.444 44.4347 119.241C45.2003 118.866 45.5831 118.147 45.5831 117.085C45.5831 116.186 45.212 115.569 44.4698 115.233C44.0558 115.045 43.4738 114.948 42.7238 114.94H38.423ZM43.3683 105.272C45.4855 105.303 46.9855 105.917 47.8683 107.112C48.3995 107.846 48.6652 108.725 48.6652 109.749C48.6652 110.803 48.3995 111.651 47.8683 112.292C47.5714 112.651 47.1339 112.979 46.5558 113.276C47.4386 113.596 48.1027 114.104 48.548 114.799C49.0011 115.495 49.2277 116.338 49.2277 117.331C49.2277 118.354 48.9698 119.272 48.4542 120.085C48.1261 120.624 47.7159 121.077 47.2238 121.444C46.6691 121.866 46.0128 122.155 45.255 122.311C44.505 122.467 43.6886 122.545 42.8058 122.545H34.9777V105.272H43.3683ZM59.0363 116.335C58.8253 116.467 58.6105 116.577 58.3917 116.663C58.1808 116.741 57.8878 116.815 57.5128 116.885L56.7628 117.026C56.0597 117.151 55.5558 117.303 55.2511 117.483C54.7355 117.788 54.4777 118.26 54.4777 118.901C54.4777 119.471 54.6339 119.885 54.9464 120.143C55.2667 120.393 55.6534 120.518 56.1066 120.518C56.8253 120.518 57.4855 120.307 58.087 119.885C58.6964 119.463 59.0128 118.694 59.0363 117.577V116.335ZM57.0089 114.776C57.6261 114.698 58.0675 114.6 58.3331 114.483C58.8097 114.28 59.048 113.963 59.048 113.534C59.048 113.01 58.8644 112.651 58.4972 112.456C58.1378 112.253 57.6066 112.151 56.9034 112.151C56.1144 112.151 55.5558 112.346 55.2277 112.737C54.9933 113.026 54.837 113.417 54.7589 113.909H51.5363C51.6066 112.792 51.9191 111.874 52.4738 111.155C53.3566 110.03 54.8722 109.467 57.0206 109.467C58.4191 109.467 59.6613 109.745 60.7472 110.299C61.8331 110.854 62.3761 111.901 62.3761 113.44V119.299C62.3761 119.706 62.3839 120.198 62.3995 120.776C62.423 121.213 62.4894 121.51 62.5988 121.667C62.7081 121.823 62.8722 121.952 63.0909 122.053V122.545H59.4581C59.3566 122.288 59.2863 122.045 59.2472 121.819C59.2081 121.592 59.1769 121.335 59.1534 121.045C58.6925 121.545 58.1613 121.971 57.5597 122.323C56.8409 122.737 56.0284 122.944 55.1222 122.944C53.9659 122.944 53.0089 122.616 52.2511 121.96C51.5011 121.295 51.1261 120.358 51.1261 119.147C51.1261 117.577 51.7316 116.44 52.9425 115.737C53.6066 115.354 54.5831 115.081 55.8722 114.917L57.0089 114.776ZM72.3956 116.335C72.1847 116.467 71.9698 116.577 71.7511 116.663C71.5402 116.741 71.2472 116.815 70.8722 116.885L70.1222 117.026C69.4191 117.151 68.9152 117.303 68.6105 117.483C68.0948 117.788 67.837 118.26 67.837 118.901C67.837 119.471 67.9933 119.885 68.3058 120.143C68.6261 120.393 69.0128 120.518 69.4659 120.518C70.1847 120.518 70.8448 120.307 71.4464 119.885C72.0558 119.463 72.3722 118.694 72.3956 117.577V116.335ZM70.3683 114.776C70.9855 114.698 71.4269 114.6 71.6925 114.483C72.1691 114.28 72.4073 113.963 72.4073 113.534C72.4073 113.01 72.2238 112.651 71.8566 112.456C71.4972 112.253 70.9659 112.151 70.2628 112.151C69.4738 112.151 68.9152 112.346 68.587 112.737C68.3527 113.026 68.1964 113.417 68.1183 113.909H64.8956C64.9659 112.792 65.2784 111.874 65.8331 111.155C66.7159 110.03 68.2316 109.467 70.38 109.467C71.7784 109.467 73.0206 109.745 74.1066 110.299C75.1925 110.854 75.7355 111.901 75.7355 113.44V119.299C75.7355 119.706 75.7433 120.198 75.7589 120.776C75.7823 121.213 75.8488 121.51 75.9581 121.667C76.0675 121.823 76.2316 121.952 76.4503 122.053V122.545H72.8175C72.7159 122.288 72.6456 122.045 72.6066 121.819C72.5675 121.592 72.5363 121.335 72.5128 121.045C72.0519 121.545 71.5206 121.971 70.9191 122.323C70.2003 122.737 69.3878 122.944 68.4816 122.944C67.3253 122.944 66.3683 122.616 65.6105 121.96C64.8605 121.295 64.4855 120.358 64.4855 119.147C64.4855 117.577 65.0909 116.44 66.3019 115.737C66.9659 115.354 67.9425 115.081 69.2316 114.917L70.3683 114.776ZM85.6495 109.467C85.712 109.467 85.7628 109.471 85.8019 109.479C85.8488 109.479 85.9464 109.483 86.0948 109.491V112.913C85.8839 112.889 85.6964 112.874 85.5323 112.866C85.3683 112.858 85.2355 112.854 85.1339 112.854C83.7902 112.854 82.8878 113.292 82.4269 114.167C82.1691 114.659 82.0402 115.417 82.0402 116.44V122.545H78.6769V109.772H81.8644V111.999C82.38 111.147 82.8292 110.565 83.212 110.253C83.837 109.729 84.6495 109.467 85.6495 109.467ZM91.4738 122.545H88.1339V105.272H91.4738V122.545ZM99.7823 112.186C99.0089 112.186 98.4073 112.428 97.9777 112.913C97.5558 113.397 97.2902 114.053 97.1808 114.881H102.372C102.318 113.999 102.048 113.331 101.564 112.878C101.087 112.417 100.493 112.186 99.7823 112.186ZM99.7823 109.432C100.845 109.432 101.802 109.631 102.653 110.03C103.505 110.428 104.208 111.057 104.763 111.917C105.263 112.674 105.587 113.553 105.735 114.553C105.821 115.139 105.857 115.983 105.841 117.085H97.0988C97.1456 118.366 97.548 119.264 98.3058 119.78C98.7667 120.1 99.3214 120.26 99.9698 120.26C100.657 120.26 101.216 120.065 101.646 119.674C101.88 119.463 102.087 119.17 102.267 118.795H105.677C105.591 119.553 105.196 120.323 104.493 121.104C103.4 122.346 101.868 122.967 99.8995 122.967C98.2745 122.967 96.8409 122.444 95.5988 121.397C94.3566 120.35 93.7355 118.647 93.7355 116.288C93.7355 114.077 94.2941 112.381 95.4113 111.202C96.5363 110.022 97.9933 109.432 99.7823 109.432ZM107.095 114.272H113.821V117.436H107.095V114.272ZM116.341 122.545V105.272H119.915V111.858H126.665V105.272H130.251V122.545H126.665V114.835H119.915V122.545H116.341ZM138.478 112.186C137.704 112.186 137.103 112.428 136.673 112.913C136.251 113.397 135.985 114.053 135.876 114.881H141.068C141.013 113.999 140.743 113.331 140.259 112.878C139.782 112.417 139.189 112.186 138.478 112.186ZM138.478 109.432C139.54 109.432 140.497 109.631 141.349 110.03C142.2 110.428 142.903 111.057 143.458 111.917C143.958 112.674 144.282 113.553 144.431 114.553C144.517 115.139 144.552 115.983 144.536 117.085H135.794C135.841 118.366 136.243 119.264 137.001 119.78C137.462 120.1 138.017 120.26 138.665 120.26C139.353 120.26 139.911 120.065 140.341 119.674C140.575 119.463 140.782 119.17 140.962 118.795H144.372C144.286 119.553 143.892 120.323 143.189 121.104C142.095 122.346 140.564 122.967 138.595 122.967C136.97 122.967 135.536 122.444 134.294 121.397C133.052 120.35 132.431 118.647 132.431 116.288C132.431 114.077 132.989 112.381 134.107 111.202C135.232 110.022 136.689 109.432 138.478 109.432ZM153.735 109.467C153.798 109.467 153.849 109.471 153.888 109.479C153.935 109.479 154.032 109.483 154.181 109.491V112.913C153.97 112.889 153.782 112.874 153.618 112.866C153.454 112.858 153.321 112.854 153.22 112.854C151.876 112.854 150.974 113.292 150.513 114.167C150.255 114.659 150.126 115.417 150.126 116.44V122.545H146.763V109.772H149.95V111.999C150.466 111.147 150.915 110.565 151.298 110.253C151.923 109.729 152.735 109.467 153.735 109.467ZM154.837 112.268V109.889H156.618V106.327H159.923V109.889H161.997V112.268H159.923V119.018C159.923 119.542 159.989 119.87 160.122 120.003C160.255 120.128 160.661 120.19 161.341 120.19C161.443 120.19 161.548 120.19 161.657 120.19C161.775 120.182 161.888 120.174 161.997 120.167V122.663L160.415 122.721C158.837 122.776 157.759 122.503 157.181 121.901C156.806 121.518 156.618 120.928 156.618 120.131V112.268H154.837ZM169.872 120.19C170.849 120.19 171.599 119.842 172.122 119.147C172.646 118.452 172.907 117.463 172.907 116.182C172.907 114.901 172.646 113.917 172.122 113.229C171.599 112.534 170.849 112.186 169.872 112.186C168.896 112.186 168.142 112.534 167.61 113.229C167.087 113.917 166.825 114.901 166.825 116.182C166.825 117.463 167.087 118.452 167.61 119.147C168.142 119.842 168.896 120.19 169.872 120.19ZM176.411 116.182C176.411 118.057 175.872 119.663 174.794 120.999C173.716 122.327 172.079 122.991 169.884 122.991C167.689 122.991 166.052 122.327 164.974 120.999C163.896 119.663 163.357 118.057 163.357 116.182C163.357 114.338 163.896 112.741 164.974 111.389C166.052 110.038 167.689 109.362 169.884 109.362C172.079 109.362 173.716 110.038 174.794 111.389C175.872 112.741 176.411 114.338 176.411 116.182ZM184.298 119.803C185.079 119.803 185.739 119.51 186.278 118.924C186.818 118.331 187.087 117.389 187.087 116.1C187.087 114.889 186.829 113.967 186.314 113.335C185.806 112.702 185.122 112.385 184.263 112.385C183.091 112.385 182.282 112.936 181.837 114.038C181.603 114.624 181.485 115.346 181.485 116.206C181.485 116.948 181.61 117.608 181.86 118.186C182.314 119.264 183.126 119.803 184.298 119.803ZM183.466 109.467C184.107 109.467 184.665 109.565 185.142 109.76C185.954 110.096 186.61 110.713 187.11 111.612V109.772H190.357V121.889C190.357 123.538 190.079 124.78 189.525 125.616C188.571 127.053 186.743 127.772 184.04 127.772C182.407 127.772 181.075 127.452 180.044 126.811C179.013 126.17 178.443 125.213 178.333 123.94H181.966C182.06 124.331 182.212 124.612 182.423 124.784C182.782 125.088 183.388 125.241 184.239 125.241C185.443 125.241 186.247 124.838 186.653 124.034C186.919 123.518 187.052 122.651 187.052 121.432V120.612C186.732 121.159 186.388 121.569 186.021 121.842C185.357 122.35 184.493 122.604 183.431 122.604C181.79 122.604 180.478 122.03 179.493 120.881C178.517 119.725 178.028 118.163 178.028 116.194C178.028 114.295 178.501 112.702 179.446 111.413C180.392 110.116 181.732 109.467 183.466 109.467Z" fill="white"/>
<path d="M38.7323 142.082C39.5526 142.082 40.1906 141.968 40.6464 141.741C41.3625 141.383 41.7206 140.738 41.7206 139.807C41.7206 138.87 41.3397 138.238 40.578 137.912C40.1483 137.73 39.5103 137.639 38.6639 137.639H35.1971V142.082H38.7323ZM39.3866 148.703C40.578 148.703 41.4276 148.358 41.9354 147.668C42.2544 147.232 42.4139 146.705 42.4139 146.086C42.4139 145.045 41.9484 144.335 41.0175 143.957C40.5227 143.756 39.8684 143.655 39.0546 143.655H35.1971V148.703H39.3866ZM33.2928 136.018H39.455C41.1346 136.018 42.3293 136.519 43.0389 137.522C43.4556 138.114 43.6639 138.798 43.6639 139.573C43.6639 140.478 43.4068 141.22 42.8925 141.799C42.6255 142.105 42.2414 142.385 41.7401 142.639C42.4758 142.919 43.0259 143.235 43.3905 143.586C44.035 144.211 44.3573 145.074 44.3573 146.174C44.3573 147.099 44.0676 147.935 43.4882 148.684C42.6223 149.804 41.2453 150.364 39.3573 150.364H33.2928V136.018ZM50.8026 139.67C51.5448 139.67 52.2642 139.846 52.9608 140.198C53.6574 140.543 54.188 140.992 54.5526 141.545C54.9042 142.073 55.1385 142.688 55.2557 143.391C55.3599 143.873 55.412 144.641 55.412 145.696H47.746C47.7785 146.757 48.0292 147.61 48.4979 148.254C48.9667 148.892 49.6926 149.211 50.6757 149.211C51.5936 149.211 52.326 148.909 52.8729 148.303C53.1854 147.952 53.4068 147.545 53.537 147.082H55.2655C55.2199 147.467 55.0669 147.896 54.8065 148.371C54.5526 148.84 54.2662 149.224 53.9471 149.524C53.4133 150.045 52.7525 150.396 51.9647 150.578C51.5415 150.683 51.063 150.735 50.5292 150.735C49.2271 150.735 48.1236 150.263 47.2186 149.319C46.3137 148.368 45.8612 147.04 45.8612 145.334C45.8612 143.655 46.3169 142.291 47.2284 141.243C48.1399 140.194 49.3313 139.67 50.8026 139.67ZM53.6053 144.299C53.5337 143.537 53.3677 142.929 53.1073 142.473C52.6255 141.627 51.8215 141.203 50.6952 141.203C49.8879 141.203 49.2108 141.496 48.6639 142.082C48.1171 142.662 47.8274 143.401 47.7948 144.299H53.6053ZM57.6288 136.018H59.3866V150.364H57.6288V136.018ZM65.7245 139.719C66.5448 139.719 67.2609 139.921 67.8729 140.325C68.205 140.552 68.5435 140.884 68.8885 141.321V140.002H70.5096V149.514C70.5096 150.842 70.3143 151.89 69.9237 152.659C69.1945 154.078 67.8176 154.787 65.7928 154.787C64.6665 154.787 63.7193 154.534 62.951 154.026C62.1828 153.524 61.7531 152.737 61.662 151.662H63.4491C63.5337 152.131 63.703 152.493 63.9569 152.746C64.354 153.137 64.979 153.332 65.8319 153.332C67.1796 153.332 68.0617 152.857 68.4784 151.907C68.7258 151.347 68.8397 150.347 68.8202 148.909C68.4686 149.442 68.0455 149.84 67.5507 150.1C67.0559 150.36 66.4016 150.491 65.5878 150.491C64.455 150.491 63.4621 150.09 62.6093 149.289C61.7629 148.482 61.3397 147.151 61.3397 145.295C61.3397 143.544 61.7662 142.177 62.619 141.194C63.4784 140.211 64.5135 139.719 65.7245 139.719ZM68.8885 145.09C68.8885 143.795 68.6216 142.834 68.0878 142.209C67.5539 141.584 66.8736 141.272 66.0468 141.272C64.8098 141.272 63.9634 141.851 63.5077 143.01C63.2668 143.629 63.1464 144.439 63.1464 145.442C63.1464 146.62 63.384 147.519 63.8593 148.137C64.341 148.749 64.9856 149.055 65.7928 149.055C67.0559 149.055 67.9445 148.485 68.4589 147.346C68.7453 146.702 68.8885 145.95 68.8885 145.09ZM73.1659 139.953H74.953V150.364H73.1659V139.953ZM73.1659 136.018H74.953V138.01H73.1659V136.018ZM81.9745 139.67C82.7167 139.67 83.4361 139.846 84.1327 140.198C84.8293 140.543 85.3599 140.992 85.7245 141.545C86.076 142.073 86.3104 142.688 86.4276 143.391C86.5318 143.873 86.5839 144.641 86.5839 145.696H78.9178C78.9504 146.757 79.201 147.61 79.6698 148.254C80.1385 148.892 80.8645 149.211 81.8475 149.211C82.7655 149.211 83.4979 148.909 84.0448 148.303C84.3573 147.952 84.5787 147.545 84.7089 147.082H86.4374C86.3918 147.467 86.2388 147.896 85.9784 148.371C85.7245 148.84 85.438 149.224 85.119 149.524C84.5852 150.045 83.9244 150.396 83.1366 150.578C82.7134 150.683 82.2349 150.735 81.701 150.735C80.399 150.735 79.2955 150.263 78.3905 149.319C77.4856 148.368 77.0331 147.04 77.0331 145.334C77.0331 143.655 77.4888 142.291 78.4003 141.243C79.3117 140.194 80.5031 139.67 81.9745 139.67ZM84.7772 144.299C84.7056 143.537 84.5396 142.929 84.2792 142.473C83.7974 141.627 82.9934 141.203 81.8671 141.203C81.0598 141.203 80.3827 141.496 79.8358 142.082C79.2889 142.662 78.9992 143.401 78.9667 144.299H84.7772ZM82.7264 136.252H84.5526V138.284H82.7264V136.252ZM79.5038 136.252H81.33V138.284H79.5038V136.252Z" fill="white" fill-opacity="0.75"/>
<path d="M41.2843 178.227C42.1958 178.227 42.9152 178.044 43.4425 177.68C43.9764 177.315 44.2433 176.658 44.2433 175.707C44.2433 174.685 43.8722 173.988 43.13 173.617C42.7329 173.422 42.2023 173.324 41.5382 173.324H36.7921V178.227H41.2843ZM34.8488 171.654H41.4894C42.5831 171.654 43.4848 171.814 44.1945 172.133C45.5421 172.745 46.2159 173.874 46.2159 175.521C46.2159 176.381 46.0369 177.084 45.6788 177.631C45.3273 178.178 44.8325 178.617 44.1945 178.949C44.7544 179.177 45.1743 179.477 45.4542 179.848C45.7407 180.219 45.9002 180.821 45.9327 181.654L46.0011 183.578C46.0206 184.125 46.0662 184.532 46.1378 184.799C46.255 185.255 46.4633 185.548 46.7628 185.678V186H44.38C44.3149 185.876 44.2628 185.717 44.2238 185.521C44.1847 185.326 44.1521 184.949 44.1261 184.389L44.0089 181.996C43.9633 181.059 43.615 180.43 42.964 180.111C42.5929 179.936 42.0102 179.848 41.2159 179.848H36.7921V186H34.8488V171.654ZM52.9835 184.867C54.1489 184.867 54.9464 184.428 55.3761 183.549C55.8123 182.663 56.0304 181.68 56.0304 180.6C56.0304 179.623 55.8741 178.829 55.5616 178.217C55.0669 177.253 54.214 176.771 53.0031 176.771C51.9288 176.771 51.1476 177.182 50.6593 178.002C50.171 178.822 49.9269 179.812 49.9269 180.971C49.9269 182.084 50.171 183.012 50.6593 183.754C51.1476 184.496 51.9223 184.867 52.9835 184.867ZM53.0519 175.238C54.3995 175.238 55.5389 175.688 56.4698 176.586C57.4008 177.484 57.8663 178.806 57.8663 180.551C57.8663 182.237 57.4562 183.63 56.6359 184.73C55.8156 185.831 54.5428 186.381 52.8175 186.381C51.3787 186.381 50.2361 185.896 49.3898 184.926C48.5434 183.949 48.1202 182.641 48.1202 181C48.1202 179.242 48.5662 177.842 49.4581 176.801C50.3501 175.759 51.548 175.238 53.0519 175.238ZM59.9659 175.541H61.6359V177.025C62.1307 176.413 62.6547 175.974 63.2081 175.707C63.7615 175.44 64.3767 175.307 65.0538 175.307C66.5382 175.307 67.5408 175.824 68.0616 176.859C68.3481 177.426 68.4913 178.236 68.4913 179.291V186H66.7042V179.408C66.7042 178.77 66.6098 178.256 66.421 177.865C66.1085 177.214 65.5421 176.889 64.7218 176.889C64.3051 176.889 63.9633 176.931 63.6964 177.016C63.2146 177.159 62.7915 177.445 62.4269 177.875C62.1339 178.22 61.9419 178.578 61.8507 178.949C61.7661 179.314 61.7238 179.838 61.7238 180.521V186H59.9659V175.541ZM72.212 180.893C72.212 182.012 72.4497 182.95 72.9249 183.705C73.4002 184.46 74.1619 184.838 75.2101 184.838C76.0239 184.838 76.6912 184.49 77.212 183.793C77.7394 183.09 78.0031 182.084 78.0031 180.775C78.0031 179.454 77.7329 178.477 77.1925 177.846C76.6521 177.208 75.9848 176.889 75.1906 176.889C74.3051 176.889 73.5857 177.227 73.0323 177.904C72.4855 178.581 72.212 179.577 72.212 180.893ZM74.8585 175.355C75.6593 175.355 76.3299 175.525 76.8702 175.863C77.1827 176.059 77.5376 176.4 77.9347 176.889V171.605H79.6241V186H78.0421V184.545C77.632 185.189 77.1469 185.655 76.587 185.941C76.0271 186.228 75.3859 186.371 74.6632 186.371C73.4978 186.371 72.4887 185.883 71.6359 184.906C70.783 183.923 70.3566 182.618 70.3566 180.99C70.3566 179.467 70.7439 178.148 71.5187 177.035C72.2999 175.915 73.4132 175.355 74.8585 175.355ZM86.587 175.307C87.3292 175.307 88.0486 175.482 88.7452 175.834C89.4419 176.179 89.9725 176.628 90.337 177.182C90.6886 177.709 90.923 178.324 91.0402 179.027C91.1443 179.509 91.1964 180.277 91.1964 181.332H83.5304C83.5629 182.393 83.8136 183.246 84.2823 183.891C84.7511 184.529 85.477 184.848 86.4601 184.848C87.3781 184.848 88.1105 184.545 88.6573 183.939C88.9698 183.588 89.1912 183.181 89.3214 182.719H91.0499C91.0044 183.103 90.8514 183.533 90.5909 184.008C90.337 184.477 90.0506 184.861 89.7316 185.16C89.1977 185.681 88.5369 186.033 87.7491 186.215C87.326 186.319 86.8475 186.371 86.3136 186.371C85.0115 186.371 83.908 185.899 83.0031 184.955C82.0981 184.005 81.6456 182.676 81.6456 180.971C81.6456 179.291 82.1014 177.927 83.0128 176.879C83.9243 175.831 85.1157 175.307 86.587 175.307ZM89.3898 179.936C89.3182 179.174 89.1521 178.565 88.8917 178.109C88.41 177.263 87.6059 176.84 86.4796 176.84C85.6723 176.84 84.9952 177.133 84.4484 177.719C83.9015 178.298 83.6118 179.037 83.5792 179.936H89.3898ZM100.112 182.436C100.23 183.438 100.695 184.132 101.509 184.516C101.926 184.711 102.407 184.809 102.954 184.809C103.996 184.809 104.767 184.477 105.269 183.812C105.77 183.148 106.021 182.413 106.021 181.605C106.021 180.629 105.721 179.874 105.122 179.34C104.53 178.806 103.817 178.539 102.984 178.539C102.378 178.539 101.857 178.656 101.421 178.891C100.991 179.125 100.623 179.451 100.318 179.867L98.7941 179.779L99.8585 172.25H107.124V173.949H101.177L100.581 177.836C100.907 177.589 101.216 177.403 101.509 177.279C102.03 177.064 102.632 176.957 103.316 176.957C104.598 176.957 105.685 177.37 106.577 178.197C107.469 179.024 107.915 180.072 107.915 181.342C107.915 182.663 107.505 183.829 106.685 184.838C105.871 185.847 104.569 186.352 102.778 186.352C101.639 186.352 100.63 186.033 99.7511 185.395C98.8787 184.75 98.3904 183.764 98.2863 182.436H100.112Z" fill="white" fill-opacity="0.75"/>
<path d="M32 0H170.727V71.4546C170.727 76.9774 166.25 81.4546 160.727 81.4546H42C36.4772 81.4546 32 76.9774 32 71.4546V0Z" fill="url(#paint0_linear_24_84)"/>
<path d="M51.3203 29.7852C51.3203 30.4648 51.4297 31.0273 51.6484 31.4727C52.0547 32.293 52.793 32.7031 53.8633 32.7031C54.5195 32.7031 55.0898 32.4805 55.5742 32.0352C56.0664 31.582 56.3125 30.9336 56.3125 30.0898C56.3125 28.9727 55.8594 28.2266 54.9531 27.8516C54.4375 27.6406 53.625 27.5352 52.5156 27.5352V25.1445C53.6016 25.1289 54.3594 25.0234 54.7891 24.8281C55.5312 24.5 55.9023 23.8359 55.9023 22.8359C55.9023 22.1875 55.7109 21.6602 55.3281 21.2539C54.9531 20.8477 54.4219 20.6445 53.7344 20.6445C52.9453 20.6445 52.3633 20.8945 51.9883 21.3945C51.6211 21.8945 51.4453 22.5625 51.4609 23.3984H48.3438C48.375 22.5547 48.5195 21.7539 48.7773 20.9961C49.0508 20.332 49.4805 19.7188 50.0664 19.1562C50.5039 18.7578 51.0234 18.4531 51.625 18.2422C52.2266 18.0312 52.9648 17.9258 53.8398 17.9258C55.4648 17.9258 56.7734 18.3477 57.7656 19.1914C58.7656 20.0273 59.2656 21.1523 59.2656 22.5664C59.2656 23.5664 58.9688 24.4102 58.375 25.0977C58 25.5273 57.6094 25.8203 57.2031 25.9766C57.5078 25.9766 57.9453 26.2383 58.5156 26.7617C59.3672 27.5508 59.793 28.6289 59.793 29.9961C59.793 31.4336 59.293 32.6992 58.293 33.793C57.3008 34.8789 55.8281 35.4219 53.875 35.4219C51.4688 35.4219 49.7969 34.6367 48.8594 33.0664C48.3672 32.2305 48.0938 31.1367 48.0391 29.7852H51.3203ZM64.9258 26.668C64.9258 28.6211 65.0859 30.1172 65.4062 31.1562C65.7266 32.1875 66.3828 32.7031 67.375 32.7031C68.3672 32.7031 69.0156 32.1875 69.3203 31.1562C69.6328 30.1172 69.7891 28.6211 69.7891 26.668C69.7891 24.6211 69.6328 23.1055 69.3203 22.1211C69.0156 21.1367 68.3672 20.6445 67.375 20.6445C66.3828 20.6445 65.7266 21.1367 65.4062 22.1211C65.0859 23.1055 64.9258 24.6211 64.9258 26.668ZM67.375 17.8906C69.5391 17.8906 71.0547 18.6523 71.9219 20.1758C72.7969 21.6992 73.2344 23.8633 73.2344 26.668C73.2344 29.4727 72.7969 31.6328 71.9219 33.1484C71.0547 34.6641 69.5391 35.4219 67.375 35.4219C65.2109 35.4219 63.6914 34.6641 62.8164 33.1484C61.9492 31.6328 61.5156 29.4727 61.5156 26.668C61.5156 23.8633 61.9492 21.6992 62.8164 20.1758C63.6914 18.6523 65.2109 17.8906 67.375 17.8906ZM101.395 26.7266H108.121V29.8906H101.395V26.7266ZM133.035 26.668C133.035 28.6211 133.195 30.1172 133.516 31.1562C133.836 32.1875 134.492 32.7031 135.484 32.7031C136.477 32.7031 137.125 32.1875 137.43 31.1562C137.742 30.1172 137.898 28.6211 137.898 26.668C137.898 24.6211 137.742 23.1055 137.43 22.1211C137.125 21.1367 136.477 20.6445 135.484 20.6445C134.492 20.6445 133.836 21.1367 133.516 22.1211C133.195 23.1055 133.035 24.6211 133.035 26.668ZM135.484 17.8906C137.648 17.8906 139.164 18.6523 140.031 20.1758C140.906 21.6992 141.344 23.8633 141.344 26.668C141.344 29.4727 140.906 31.6328 140.031 33.1484C139.164 34.6641 137.648 35.4219 135.484 35.4219C133.32 35.4219 131.801 34.6641 130.926 33.1484C130.059 31.6328 129.625 29.4727 129.625 26.668C129.625 23.8633 130.059 21.6992 130.926 20.1758C131.801 18.6523 133.32 17.8906 135.484 17.8906ZM143.898 23.2812V21.0078C144.953 20.9609 145.691 20.8906 146.113 20.7969C146.785 20.6484 147.332 20.3516 147.754 19.9062C148.043 19.6016 148.262 19.1953 148.41 18.6875C148.496 18.3828 148.539 18.1562 148.539 18.0078H151.316V35H147.895V23.2812H143.898ZM46.5508 57.668C46.6602 58.457 46.875 59.0469 47.1953 59.4375C47.7812 60.1484 48.7852 60.5039 50.207 60.5039C51.0586 60.5039 51.75 60.4102 52.2812 60.2227C53.2891 59.8633 53.793 59.1953 53.793 58.2188C53.793 57.6484 53.543 57.207 53.043 56.8945C52.543 56.5898 51.7578 56.3203 50.6875 56.0859L48.8594 55.6758C47.0625 55.2695 45.8203 54.8281 45.1328 54.3516C43.9688 53.5547 43.3867 52.3086 43.3867 50.6133C43.3867 49.0664 43.9492 47.7812 45.0742 46.7578C46.1992 45.7344 47.8516 45.2227 50.0312 45.2227C51.8516 45.2227 53.4023 45.707 54.6836 46.6758C55.9727 47.6367 56.6484 49.0352 56.7109 50.8711H53.2422C53.1797 49.832 52.7266 49.0938 51.8828 48.6562C51.3203 48.3672 50.6211 48.2227 49.7852 48.2227C48.8555 48.2227 48.1133 48.4102 47.5586 48.7852C47.0039 49.1602 46.7266 49.6836 46.7266 50.3555C46.7266 50.9727 47 51.4336 47.5469 51.7383C47.8984 51.9414 48.6484 52.1797 49.7969 52.4531L52.7734 53.168C54.0781 53.4805 55.0625 53.8984 55.7266 54.4219C56.7578 55.2344 57.2734 56.4102 57.2734 57.9492C57.2734 59.5273 56.668 60.8398 55.457 61.8867C54.2539 62.9258 52.5508 63.4453 50.3477 63.4453C48.0977 63.4453 46.3281 62.9336 45.0391 61.9102C43.75 60.8789 43.1055 59.4648 43.1055 57.668H46.5508ZM64.7148 52.6406C63.9414 52.6406 63.3398 52.8828 62.9102 53.3672C62.4883 53.8516 62.2227 54.5078 62.1133 55.3359H67.3047C67.25 54.4531 66.9805 53.7852 66.4961 53.332C66.0195 52.8711 65.4258 52.6406 64.7148 52.6406ZM64.7148 49.8867C65.7773 49.8867 66.7344 50.0859 67.5859 50.4844C68.4375 50.8828 69.1406 51.5117 69.6953 52.3711C70.1953 53.1289 70.5195 54.0078 70.668 55.0078C70.7539 55.5938 70.7891 56.4375 70.7734 57.5391H62.0312C62.0781 58.8203 62.4805 59.7188 63.2383 60.2344C63.6992 60.5547 64.2539 60.7148 64.9023 60.7148C65.5898 60.7148 66.1484 60.5195 66.5781 60.1289C66.8125 59.918 67.0195 59.625 67.1992 59.25H70.6094C70.5234 60.0078 70.1289 60.7773 69.4258 61.5586C68.332 62.8008 66.8008 63.4219 64.832 63.4219C63.207 63.4219 61.7734 62.8984 60.5312 61.8516C59.2891 60.8047 58.668 59.1016 58.668 56.7422C58.668 54.5312 59.2266 52.8359 60.3438 51.6562C61.4688 50.4766 62.9258 49.8867 64.7148 49.8867ZM81.8359 56.6133C81.8359 55.6289 81.6094 54.7578 81.1562 54C80.7109 53.2422 79.9844 52.8633 78.9766 52.8633C77.7656 52.8633 76.9336 53.4375 76.4805 54.5859C76.2461 55.1953 76.1289 55.9688 76.1289 56.9062C76.1289 58.3906 76.5234 59.4336 77.3125 60.0352C77.7812 60.3867 78.3359 60.5625 78.9766 60.5625C79.9062 60.5625 80.6133 60.2031 81.0977 59.4844C81.5898 58.7656 81.8359 57.8086 81.8359 56.6133ZM79.9375 49.9453C81.4297 49.9453 82.6914 50.4961 83.7227 51.5977C84.7617 52.6992 85.2812 54.3164 85.2812 56.4492C85.2812 58.6992 84.7734 60.4141 83.7578 61.5938C82.75 62.7734 81.4492 63.3633 79.8555 63.3633C78.8398 63.3633 77.9961 63.1094 77.3242 62.6016C76.957 62.3203 76.5977 61.9102 76.2461 61.3711V68.0273H72.9414V50.2266H76.1406V52.1133C76.5 51.5586 76.8828 51.1211 77.2891 50.8008C78.0312 50.2305 78.9141 49.9453 79.9375 49.9453ZM86.3945 52.7227V50.3438H88.1758V46.7812H91.4805V50.3438H93.5547V52.7227H91.4805V59.4727C91.4805 59.9961 91.5469 60.3242 91.6797 60.457C91.8125 60.582 92.2188 60.6445 92.8984 60.6445C93 60.6445 93.1055 60.6445 93.2148 60.6445C93.332 60.6367 93.4453 60.6289 93.5547 60.6211V63.1172L91.9727 63.1758C90.3945 63.2305 89.3164 62.957 88.7383 62.3555C88.3633 61.9727 88.1758 61.3828 88.1758 60.5859V52.7227H86.3945ZM130.328 60.4219C131.758 60.4219 132.891 59.8945 133.727 58.8398C134.57 57.7852 134.992 56.2852 134.992 54.3398C134.992 52.4023 134.57 50.9062 133.727 49.8516C132.891 48.7891 131.758 48.2578 130.328 48.2578C128.898 48.2578 127.758 48.7852 126.906 49.8398C126.055 50.8945 125.629 52.3945 125.629 54.3398C125.629 56.2852 126.055 57.7852 126.906 58.8398C127.758 59.8945 128.898 60.4219 130.328 60.4219ZM138.602 54.3398C138.602 57.4414 137.73 59.8164 135.988 61.4648C134.684 62.8086 132.797 63.4805 130.328 63.4805C127.859 63.4805 125.973 62.8086 124.668 61.4648C122.918 59.8164 122.043 57.4414 122.043 54.3398C122.043 51.1758 122.918 48.8008 124.668 47.2148C125.973 45.8711 127.859 45.1992 130.328 45.1992C132.797 45.1992 134.684 45.8711 135.988 47.2148C137.73 48.8008 138.602 51.1758 138.602 54.3398ZM141.062 45.7852H144.344V55.0898L148.504 50.2852H152.641L148.176 55.1719L152.816 63H148.785L145.727 57.5391L144.344 58.9805V63H141.062V45.7852ZM153.145 52.7227V50.3438H154.926V46.7812H158.23V50.3438H160.305V52.7227H158.23V59.4727C158.23 59.9961 158.297 60.3242 158.43 60.457C158.562 60.582 158.969 60.6445 159.648 60.6445C159.75 60.6445 159.855 60.6445 159.965 60.6445C160.082 60.6367 160.195 60.6289 160.305 60.6211V63.1172L158.723 63.1758C157.145 63.2305 156.066 62.957 155.488 62.3555C155.113 61.9727 154.926 61.3828 154.926 60.5859V52.7227H153.145Z" fill="white"/>
<defs>
<linearGradient id="paint0_linear_24_84" x1="32" y1="0" x2="282.727" y2="160.364" gradientUnits="userSpaceOnUse">
<stop stop-color="#FF0000"/>
<stop offset="1" stop-color="#FF0000" stop-opacity="0"/>
</linearGradient>
</defs>
</svg>
